<svg width="40" height="40" viewBox="0 0 40 40" fill="none" xmlns="http://www.w3.org/2000/svg">
<rect width="40" height="40" rx="20" fill="url(#paint0_linear_318_169100)"/>
<g filter="url(#filter0_dd_318_169100)">
<mask id="mask0_318_169100" style="mask-type:alpha" maskUnits="userSpaceOnUse" x="8" y="8" width="24" height="24">
<rect x="8" y="8" width="24" height="24" fill="#D9D9D9"/>
</mask>
<g mask="url(#mask0_318_169100)">
<path d="M19.9998 30C18.6164 30 17.3164 29.7373 16.0998 29.212C14.8831 28.6873 13.8248 27.975 12.9248 27.075C12.0248 26.175 11.3124 25.1167 10.7878 23.9C10.2624 22.6833 9.99976 21.3833 9.99976 20C9.99976 18.6167 10.2624 17.3167 10.7878 16.1C11.3124 14.8833 12.0248 13.825 12.9248 12.925C13.8248 12.025 14.8831 11.3123 16.0998 10.787C17.3164 10.2623 18.6164 10 19.9998 10C21.3831 10 22.6831 10.2623 23.8998 10.787C25.1164 11.3123 26.1748 12.025 27.0748 12.925C27.9748 13.825 28.6871 14.8833 29.2118 16.1C29.7371 17.3167 29.9998 18.6167 29.9998 20C29.9998 21.3833 29.7371 22.6833 29.2118 23.9C28.6871 25.1167 27.9748 26.175 27.0748 27.075C26.1748 27.975 25.1164 28.6873 23.8998 29.212C22.6831 29.7373 21.3831 30 19.9998 30ZM18.9998 27.95V26C18.4498 26 17.9791 25.8043 17.5878 25.413C17.1958 25.021 16.9998 24.55 16.9998 24V23L12.1998 18.2C12.1498 18.5 12.1038 18.8 12.0618 19.1C12.0204 19.4 11.9998 19.7 11.9998 20C11.9998 22.0167 12.6624 23.7833 13.9878 25.3C15.3124 26.8167 16.9831 27.7 18.9998 27.95ZM25.8998 25.4C26.2331 25.0333 26.5331 24.6373 26.7998 24.212C27.0664 23.7873 27.2874 23.3457 27.4628 22.887C27.6374 22.429 27.7708 21.9583 27.8628 21.475C27.9541 20.9917 27.9998 20.5 27.9998 20C27.9998 18.3667 27.5458 16.875 26.6378 15.525C25.7291 14.175 24.5164 13.2 22.9998 12.6V13C22.9998 13.55 22.8041 14.0207 22.4128 14.412C22.0208 14.804 21.5498 15 20.9998 15H18.9998V17C18.9998 17.2833 18.9041 17.5207 18.7128 17.712C18.5208 17.904 18.2831 18 17.9998 18H15.9998V20H21.9998C22.2831 20 22.5208 20.0957 22.7128 20.287C22.9041 20.479 22.9998 20.7167 22.9998 21V24H23.9998C24.4331 24 24.8248 24.129 25.1748 24.387C25.5248 24.6457 25.7664 24.9833 25.8998 25.4Z" fill="url(#paint1_linear_318_169100)"/>
</g>
</g>
<defs>
<filter id="filter0_dd_318_169100" x="3.99976" y="8" width="32" height="32" filterUnits="userSpaceOnUse" color-interpolation-filters="sRGB">
<feFlood flood-opacity="0" result="BackgroundImageFix"/>
<feColorMatrix in="SourceAlpha" type="matrix" values="0 0 0 0 0 0 0 0 0 0 0 0 0 0 0 0 0 0 127 0" result="hardAlpha"/>
<feMorphology radius="2" operator="erode" in="SourceAlpha" result="effect1_dropShadow_318_169100"/>
<feOffset dy="4"/>
<feGaussianBlur stdDeviation="4"/>
<feComposite in2="hardAlpha" operator="out"/>
<feColorMatrix type="matrix" values="0 0 0 0 0.168627 0 0 0 0 0.501961 0 0 0 0 1 0 0 0 0.12 0"/>
<feBlend mode="normal" in2="BackgroundImageFix" result="effect1_dropShadow_318_169100"/>
<feColorMatrix in="SourceAlpha" type="matrix" values="0 0 0 0 0 0 0 0 0 0 0 0 0 0 0 0 0 0 127 0" result="hardAlpha"/>
<feMorphology radius="2" operator="erode" in="SourceAlpha" result="effect2_dropShadow_318_169100"/>
<feOffset dy="2"/>
<feGaussianBlur stdDeviation="2"/>
<feComposite in2="hardAlpha" operator="out"/>
<feColorMatrix type="matrix" values="0 0 0 0 0.168627 0 0 0 0 0.501961 0 0 0 0 1 0 0 0 0.08 0"/>
<feBlend mode="normal" in2="effect1_dropShadow_318_169100" result="effect2_dropShadow_318_169100"/>
<feBlend mode="normal" in="SourceGraphic" in2="effect2_dropShadow_318_169100" result="shape"/>
</filter>
<linearGradient id="paint0_linear_318_169100" x1="20" y1="5.96046e-07" x2="20" y2="40" gradientUnits="userSpaceOnUse">
<stop stop-color="#E6F6FF"/>
<stop offset="1" stop-color="#2B80FF"/>
</linearGradient>
<linearGradient id="paint1_linear_318_169100" x1="19.9998" y1="10" x2="19.9998" y2="30" gradientUnits="userSpaceOnUse">
<stop stop-color="white"/>
<stop offset="1" stop-color="white" stop-opacity="0.48"/>
</linearGradient>
</defs>
</svg>
