<svg width="40" height="40" viewBox="0 0 40 40" fill="none" xmlns="http://www.w3.org/2000/svg">
<rect width="40" height="40" rx="20" fill="url(#paint0_linear_318_169092)"/>
<g filter="url(#filter0_dd_318_169092)">
<mask id="mask0_318_169092" style="mask-type:alpha" maskUnits="userSpaceOnUse" x="8" y="8" width="24" height="24">
<rect x="8" y="8" width="24" height="24" fill="#D9D9D9"/>
</mask>
<g mask="url(#mask0_318_169092)">
<path d="M14.5 28.0002C12.9833 28.0002 11.6877 27.4752 10.613 26.4252C9.53767 25.3752 9 24.0919 9 22.5752C9 21.2752 9.39167 20.1169 10.175 19.1002C10.9583 18.0835 11.9833 17.4335 13.25 17.1502C13.6333 15.8002 14.346 14.6669 15.388 13.7502C16.4293 12.8335 17.6333 12.2752 19 12.0752V20.1502L18.1 19.2752C17.9167 19.0919 17.6877 19.0002 17.413 19.0002C17.1377 19.0002 16.9 19.1002 16.7 19.3002C16.5167 19.4835 16.425 19.7169 16.425 20.0002C16.425 20.2835 16.5167 20.5169 16.7 20.7002L19.3 23.3002C19.5 23.5002 19.7333 23.6002 20 23.6002C20.2667 23.6002 20.5 23.5002 20.7 23.3002L23.3 20.7002C23.4833 20.5169 23.5793 20.2875 23.588 20.0122C23.596 19.7375 23.5 19.5002 23.3 19.3002C23.1167 19.1169 22.8877 19.0209 22.613 19.0122C22.3377 19.0042 22.1 19.0919 21.9 19.2752L21 20.1502V12.0752C22.7167 12.3085 24.146 13.0792 25.288 14.3872C26.4293 15.6959 27 17.2335 27 19.0002C28.15 19.1335 29.1043 19.6292 29.863 20.4872C30.621 21.3459 31 22.3502 31 23.5002C31 24.7502 30.5627 25.8129 29.688 26.6882C28.8127 27.5629 27.75 28.0002 26.5 28.0002H14.5Z" fill="url(#paint1_linear_318_169092)"/>
</g>
</g>
<defs>
<filter id="filter0_dd_318_169092" x="3" y="10.0752" width="34" height="27.9248" filterUnits="userSpaceOnUse" color-interpolation-filters="sRGB">
<feFlood flood-opacity="0" result="BackgroundImageFix"/>
<feColorMatrix in="SourceAlpha" type="matrix" values="0 0 0 0 0 0 0 0 0 0 0 0 0 0 0 0 0 0 127 0" result="hardAlpha"/>
<feMorphology radius="2" operator="erode" in="SourceAlpha" result="effect1_dropShadow_318_169092"/>
<feOffset dy="4"/>
<feGaussianBlur stdDeviation="4"/>
<feComposite in2="hardAlpha" operator="out"/>
<feColorMatrix type="matrix" values="0 0 0 0 1 0 0 0 0 0.45098 0 0 0 0 0.054902 0 0 0 0.12 0"/>
<feBlend mode="normal" in2="BackgroundImageFix" result="effect1_dropShadow_318_169092"/>
<feColorMatrix in="SourceAlpha" type="matrix" values="0 0 0 0 0 0 0 0 0 0 0 0 0 0 0 0 0 0 127 0" result="hardAlpha"/>
<feMorphology radius="2" operator="erode" in="SourceAlpha" result="effect2_dropShadow_318_169092"/>
<feOffset dy="2"/>
<feGaussianBlur stdDeviation="2"/>
<feComposite in2="hardAlpha" operator="out"/>
<feColorMatrix type="matrix" values="0 0 0 0 1 0 0 0 0 0.45098 0 0 0 0 0.054902 0 0 0 0.08 0"/>
<feBlend mode="normal" in2="effect1_dropShadow_318_169092" result="effect2_dropShadow_318_169092"/>
<feBlend mode="normal" in="SourceGraphic" in2="effect2_dropShadow_318_169092" result="shape"/>
</filter>
<linearGradient id="paint0_linear_318_169092" x1="20" y1="5.96046e-07" x2="20" y2="40" gradientUnits="userSpaceOnUse">
<stop stop-color="#FFEFE6"/>
<stop offset="1" stop-color="#FF730E"/>
</linearGradient>
<linearGradient id="paint1_linear_318_169092" x1="20" y1="12.0752" x2="20" y2="28.0002" gradientUnits="userSpaceOnUse">
<stop stop-color="white"/>
<stop offset="1" stop-color="white" stop-opacity="0.48"/>
</linearGradient>
</defs>
</svg>
