<svg width="40" height="40" viewBox="0 0 40 40" fill="none" xmlns="http://www.w3.org/2000/svg">
<rect width="40" height="40" rx="20" fill="url(#paint0_linear_318_169104)"/>
<g filter="url(#filter0_dd_318_169104)">
<mask id="mask0_318_169104" style="mask-type:alpha" maskUnits="userSpaceOnUse" x="8" y="8" width="24" height="24">
<rect x="8" y="8" width="24" height="24" fill="#D9D9D9"/>
</mask>
<g mask="url(#mask0_318_169104)">
<path d="M13 27C12.7167 27 12.479 26.904 12.287 26.712C12.0957 26.5207 12 26.2833 12 26C12 25.7167 12.0957 25.4793 12.287 25.288C12.479 25.096 12.7167 25 13 25H14V18C14 16.6167 14.4167 15.3873 15.25 14.312C16.0833 13.2373 17.1667 12.5333 18.5 12.2V11.5C18.5 11.0833 18.646 10.7293 18.938 10.438C19.2293 10.146 19.5833 10 20 10C20.4167 10 20.7707 10.146 21.062 10.438C21.354 10.7293 21.5 11.0833 21.5 11.5V12.2C22.8333 12.5333 23.9167 13.2373 24.75 14.312C25.5833 15.3873 26 16.6167 26 18V25H27C27.2833 25 27.5207 25.096 27.712 25.288C27.904 25.4793 28 25.7167 28 26C28 26.2833 27.904 26.5207 27.712 26.712C27.5207 26.904 27.2833 27 27 27H13ZM20 30C19.45 30 18.9793 29.8043 18.588 29.413C18.196 29.021 18 28.55 18 28H22C22 28.55 21.8043 29.021 21.413 29.413C21.021 29.8043 20.55 30 20 30Z" fill="url(#paint1_linear_318_169104)"/>
</g>
</g>
<defs>
<filter id="filter0_dd_318_169104" x="6" y="8" width="28" height="32" filterUnits="userSpaceOnUse" color-interpolation-filters="sRGB">
<feFlood flood-opacity="0" result="BackgroundImageFix"/>
<feColorMatrix in="SourceAlpha" type="matrix" values="0 0 0 0 0 0 0 0 0 0 0 0 0 0 0 0 0 0 127 0" result="hardAlpha"/>
<feMorphology radius="2" operator="erode" in="SourceAlpha" result="effect1_dropShadow_318_169104"/>
<feOffset dy="4"/>
<feGaussianBlur stdDeviation="4"/>
<feComposite in2="hardAlpha" operator="out"/>
<feColorMatrix type="matrix" values="0 0 0 0 0.411765 0 0 0 0 0.266667 0 0 0 0 1 0 0 0 0.12 0"/>
<feBlend mode="normal" in2="BackgroundImageFix" result="effect1_dropShadow_318_169104"/>
<feColorMatrix in="SourceAlpha" type="matrix" values="0 0 0 0 0 0 0 0 0 0 0 0 0 0 0 0 0 0 127 0" result="hardAlpha"/>
<feMorphology radius="2" operator="erode" in="SourceAlpha" result="effect2_dropShadow_318_169104"/>
<feOffset dy="2"/>
<feGaussianBlur stdDeviation="2"/>
<feComposite in2="hardAlpha" operator="out"/>
<feColorMatrix type="matrix" values="0 0 0 0 0.411765 0 0 0 0 0.266667 0 0 0 0 1 0 0 0 0.08 0"/>
<feBlend mode="normal" in2="effect1_dropShadow_318_169104" result="effect2_dropShadow_318_169104"/>
<feBlend mode="normal" in="SourceGraphic" in2="effect2_dropShadow_318_169104" result="shape"/>
</filter>
<linearGradient id="paint0_linear_318_169104" x1="20" y1="5.96046e-07" x2="20" y2="40" gradientUnits="userSpaceOnUse">
<stop stop-color="#F1E6FF"/>
<stop offset="1" stop-color="#6944FF"/>
</linearGradient>
<linearGradient id="paint1_linear_318_169104" x1="20" y1="10" x2="20" y2="30" gradientUnits="userSpaceOnUse">
<stop stop-color="white"/>
<stop offset="1" stop-color="white" stop-opacity="0.48"/>
</linearGradient>
</defs>
</svg>
