<svg width="50" height="24" viewBox="0 0 50 24" fill="none" xmlns="http://www.w3.org/2000/svg">
<path d="M42.6617 3.24058C42.6605 3.24672 42.6572 3.25225 42.6524 3.25621C42.6476 3.26018 42.6416 3.26234 42.6353 3.26234C42.6291 3.26234 42.6231 3.26018 42.6183 3.25621C42.6135 3.25225 42.6102 3.24672 42.609 3.24058V2.38317L42.5015 2.14301V2.57008C42.5002 2.57622 42.4969 2.58175 42.4921 2.58571C42.4873 2.58968 42.4813 2.59184 42.4751 2.59184C42.4689 2.59184 42.4629 2.58968 42.4581 2.58571C42.4533 2.58175 42.45 2.57622 42.4488 2.57008V2.1354C42.4488 2.12018 42.4423 2.10823 42.4337 2.10823C42.4251 2.10823 42.4176 2.12018 42.4176 2.1354V2.57008C42.4176 2.577 42.4149 2.58363 42.41 2.58852C42.4052 2.59342 42.3986 2.59616 42.3918 2.59616C42.3849 2.59616 42.3784 2.59342 42.3735 2.58852C42.3687 2.58363 42.366 2.577 42.366 2.57008V1.83329L42.3531 1.80395C42.3515 1.81111 42.3515 1.81853 42.3531 1.82569V2.31905C42.3539 2.323 42.3538 2.32707 42.3528 2.33098C42.3519 2.33489 42.3501 2.33853 42.3475 2.34165C42.345 2.34477 42.3418 2.34728 42.3382 2.34901C42.3346 2.35073 42.3307 2.35163 42.3267 2.35163C42.3227 2.35163 42.3188 2.35073 42.3152 2.34901C42.3116 2.34728 42.3084 2.34477 42.3059 2.34165C42.3034 2.33853 42.3016 2.33489 42.3006 2.33098C42.2997 2.32707 42.2996 2.323 42.3004 2.31905V1.82569C42.3004 1.81156 42.3004 1.79961 42.2896 1.79961C42.2789 1.79961 42.2789 1.81156 42.2789 1.82569V2.63311C42.2789 2.64003 42.2761 2.64666 42.2713 2.65155C42.2665 2.65644 42.2599 2.65919 42.2531 2.65919C42.2462 2.65919 42.2396 2.65644 42.2348 2.65155C42.23 2.64666 42.2272 2.64003 42.2272 2.63311V2.13757C42.2272 2.13037 42.2244 2.12346 42.2194 2.11836C42.2143 2.11327 42.2075 2.1104 42.2004 2.1104C42.1932 2.1104 42.1864 2.11327 42.1814 2.11836C42.1763 2.12346 42.1735 2.13037 42.1735 2.13757V2.35491C42.1735 2.36183 42.1708 2.36846 42.1659 2.37336C42.1611 2.37825 42.1545 2.38099 42.1477 2.38099C42.1408 2.38099 42.1343 2.37825 42.1294 2.37336C42.1246 2.36846 42.1219 2.36183 42.1219 2.35491V1.82569C42.1219 1.81156 42.1133 1.79961 42.1036 1.79961C42.0939 1.79961 42.0864 1.81156 42.0864 1.82569V2.63311C42.0864 2.64003 42.0837 2.64666 42.0788 2.65155C42.074 2.65644 42.0674 2.65919 42.0606 2.65919C42.0537 2.65919 42.0472 2.65644 42.0423 2.65155C42.0375 2.64666 42.0348 2.64003 42.0348 2.63311V2.00173C42.0355 1.99855 42.0355 1.99524 42.0348 1.99206C42.034 1.98888 42.0326 1.9859 42.0306 1.98335C42.0286 1.9808 42.026 1.97874 42.0231 1.97732C42.0202 1.9759 42.017 1.97517 42.0138 1.97517C42.0106 1.97517 42.0074 1.9759 42.0045 1.97732C42.0015 1.97874 41.999 1.9808 41.997 1.98335C41.995 1.9859 41.9935 1.98888 41.9928 1.99206C41.9921 1.99524 41.9921 1.99855 41.9928 2.00173V2.19408C41.9916 2.20022 41.9883 2.20574 41.9835 2.20971C41.9787 2.21368 41.9727 2.21584 41.9665 2.21584C41.9603 2.21584 41.9543 2.21368 41.9495 2.20971C41.9447 2.20574 41.9414 2.20022 41.9401 2.19408V2.00173C41.9404 1.99528 41.9382 1.98896 41.934 1.9841C41.9298 1.97923 41.9239 1.97621 41.9175 1.97565C41.9112 1.97621 41.9053 1.97923 41.9011 1.9841C41.8968 1.98896 41.8947 1.99528 41.895 2.00173V2.31905C41.8951 2.32257 41.8945 2.32608 41.8933 2.32937C41.8921 2.33266 41.8902 2.33566 41.8878 2.3382C41.8854 2.34074 41.8825 2.34276 41.8793 2.34414C41.8761 2.34551 41.8726 2.34622 41.8692 2.34622C41.8622 2.34594 41.8556 2.34295 41.8508 2.33789C41.846 2.33282 41.8433 2.32607 41.8433 2.31905V1.93218C41.8433 1.91697 41.8358 1.90502 41.8261 1.90502C41.8165 1.90502 41.81 1.91697 41.81 1.93218V1.94848C41.8108 1.95243 41.8107 1.9565 41.8098 1.96041C41.8088 1.96432 41.807 1.96797 41.8045 1.97108C41.802 1.9742 41.7988 1.97671 41.7952 1.97844C41.7916 1.98016 41.7876 1.98106 41.7837 1.98106C41.7797 1.98106 41.7757 1.98016 41.7721 1.97844C41.7685 1.97671 41.7654 1.9742 41.7628 1.97108C41.7603 1.96797 41.7585 1.96432 41.7576 1.96041C41.7566 1.9565 41.7565 1.95243 41.7573 1.94848V1.90067C41.7573 1.88654 41.7487 1.87459 41.739 1.87459C41.7294 1.87459 41.7197 1.88654 41.7197 1.90067V2.08215L41.7638 2.19625H41.7197V2.31905C41.7197 2.32597 41.717 2.3326 41.7121 2.33749C41.7073 2.34239 41.7007 2.34513 41.6939 2.34513C41.687 2.34513 41.6805 2.34239 41.6756 2.33749C41.6708 2.3326 41.6681 2.32597 41.6681 2.31905V2.19625H41.6283V2.27232C41.6291 2.27627 41.629 2.28034 41.628 2.28425C41.6271 2.28816 41.6253 2.29181 41.6227 2.29492C41.6202 2.29804 41.617 2.30055 41.6134 2.30228C41.6098 2.304 41.6059 2.3049 41.6019 2.3049C41.5979 2.3049 41.594 2.304 41.5904 2.30228C41.5868 2.30055 41.5836 2.29804 41.5811 2.29492C41.5786 2.29181 41.5768 2.28816 41.5758 2.28425C41.5749 2.28034 41.5748 2.27627 41.5756 2.27232V2.19625H41.5369V2.55704C41.5377 2.56099 41.5376 2.56506 41.5366 2.56897C41.5357 2.57288 41.5338 2.57652 41.5313 2.57964C41.5288 2.58276 41.5256 2.58527 41.522 2.587C41.5184 2.58872 41.5145 2.58962 41.5105 2.58962C41.5065 2.58962 41.5026 2.58872 41.499 2.587C41.4954 2.58527 41.4922 2.58276 41.4897 2.57964C41.4872 2.57652 41.4854 2.57288 41.4844 2.56897C41.4835 2.56506 41.4834 2.56099 41.4842 2.55704V2.19625H41.3325V2.59508C41.3313 2.60122 41.328 2.60674 41.3232 2.61071C41.3184 2.61467 41.3124 2.61684 41.3062 2.61684C41.3 2.61684 41.294 2.61467 41.2892 2.61071C41.2844 2.60674 41.2811 2.60122 41.2798 2.59508V2.19625H41.1648V2.31905C41.1656 2.323 41.1655 2.32707 41.1645 2.33098C41.1636 2.33489 41.1618 2.33853 41.1593 2.34165C41.1567 2.34477 41.1536 2.34728 41.15 2.34901C41.1464 2.35073 41.1424 2.35163 41.1384 2.35163C41.1344 2.35163 41.1305 2.35073 41.1269 2.34901C41.1233 2.34728 41.1201 2.34477 41.1176 2.34165C41.1151 2.33853 41.1133 2.33489 41.1123 2.33098C41.1114 2.32707 41.1113 2.323 41.1121 2.31905V2.19625H40.7895L40.9282 1.83438H40.8841C40.8691 1.83438 40.8572 1.84199 40.8572 1.85068C40.8571 1.85311 40.8565 1.85548 40.8554 1.85767C40.8544 1.85986 40.8529 1.86182 40.8511 1.86344C40.8493 1.86505 40.8472 1.86629 40.845 1.86709C40.8427 1.86788 40.8403 1.86821 40.8379 1.86807C40.8328 1.86804 40.8279 1.86991 40.8241 1.87333C40.8204 1.87674 40.818 1.88145 40.8174 1.88654C40.8174 1.89741 40.8056 1.90502 40.7916 1.90502C40.7776 1.90502 40.7647 1.89632 40.7647 1.88546C40.7639 1.87988 40.761 1.87483 40.7566 1.87138C40.7522 1.86794 40.7466 1.86636 40.7411 1.86698C40.7271 1.86698 40.7164 1.86698 40.7164 1.87785C40.7164 1.88872 40.7067 1.8898 40.6938 1.8898C40.6879 1.89007 40.6823 1.89256 40.6781 1.89678C40.6739 1.901 40.6715 1.90666 40.6712 1.91262C40.6706 1.91906 40.6676 1.92503 40.6628 1.92929C40.658 1.93354 40.6518 1.93575 40.6454 1.93544H40.5873C40.5841 1.93574 40.5808 1.93539 40.5777 1.9344C40.5746 1.93341 40.5717 1.93181 40.5692 1.92969C40.5667 1.92757 40.5646 1.92497 40.5631 1.92204C40.5616 1.91911 40.5607 1.91591 40.5604 1.91262C40.5604 1.90067 40.5604 1.8898 40.5507 1.8898C40.5411 1.8898 40.5411 1.87785 40.5411 1.86372V1.82569C40.5408 1.81867 40.5378 1.81204 40.5328 1.80717C40.5278 1.80231 40.5211 1.7996 40.5142 1.79961H40.1916L39.4689 3.46662H40.3066L40.5497 2.83198H42.0014L42.2444 3.46662H43.0822L42.6617 2.49945V3.24058Z" fill="url(#paint0_linear_35_167543)"/>
<path d="M42.135 1.74636C42.1459 1.74636 42.1546 1.7344 42.1546 1.72027V1.34101L42.1165 1.25408V1.72027C42.1165 1.73875 42.1241 1.74636 42.135 1.74636Z" fill="url(#paint1_linear_35_167543)"/>
<path d="M40.6024 1.73875C40.6024 1.73875 40.6142 1.73005 40.6282 1.73005C40.6422 1.73005 40.6551 1.73005 40.6551 1.73875C40.6551 1.74744 40.6669 1.74853 40.6809 1.74853H40.697C40.7031 1.74915 40.7092 1.74734 40.714 1.74348C40.7189 1.73963 40.722 1.73404 40.7228 1.72788C40.7236 1.72144 40.7269 1.71557 40.7319 1.71151C40.7369 1.70745 40.7433 1.70553 40.7497 1.70615C40.7528 1.70585 40.7559 1.70617 40.7589 1.70711C40.7619 1.70804 40.7647 1.70956 40.7671 1.71158C40.7695 1.7136 40.7715 1.71608 40.7729 1.71888C40.7743 1.72168 40.7752 1.72474 40.7755 1.72788C40.7763 1.73404 40.7794 1.73963 40.7843 1.74348C40.7891 1.74734 40.7952 1.74915 40.8013 1.74853H40.9669L41.2777 0.936757L41.3788 1.19974C41.3815 1.20224 41.3836 1.20527 41.3851 1.20863C41.3866 1.21199 41.3873 1.21562 41.3874 1.2193L41.4616 1.41382C41.4671 1.41526 41.472 1.41848 41.4755 1.423C41.479 1.42752 41.4809 1.43308 41.4809 1.43882V1.4649L41.5229 1.57357V1.12476C41.5241 1.11862 41.5274 1.11309 41.5322 1.10913C41.537 1.10516 41.543 1.103 41.5492 1.103C41.5554 1.103 41.5614 1.10516 41.5662 1.10913C41.571 1.11309 41.5743 1.11862 41.5756 1.12476V1.71158L41.5885 1.74636C41.5939 1.74636 41.5992 1.73331 41.5992 1.72027V1.52141C41.5992 1.51449 41.6019 1.50786 41.6068 1.50296C41.6116 1.49807 41.6182 1.49533 41.625 1.49533C41.6319 1.49533 41.6385 1.49807 41.6433 1.50296C41.6481 1.50786 41.6508 1.51449 41.6508 1.52141V1.71919C41.6508 1.7261 41.6536 1.73274 41.6584 1.73763C41.6632 1.74252 41.6698 1.74527 41.6767 1.74527C41.68 1.74527 41.6833 1.74459 41.6864 1.74327C41.6895 1.74194 41.6922 1.74001 41.6945 1.73757C41.6968 1.73513 41.6987 1.73225 41.6998 1.72909C41.701 1.72593 41.7015 1.72256 41.7014 1.71919V1.30406C41.7026 1.29792 41.7059 1.2924 41.7107 1.28844C41.7155 1.28447 41.7215 1.2823 41.7277 1.2823C41.7339 1.2823 41.74 1.28447 41.7448 1.28844C41.7496 1.2924 41.7528 1.29792 41.7541 1.30406V1.60834C41.7538 1.6148 41.756 1.62112 41.7602 1.62598C41.7644 1.63084 41.7703 1.63387 41.7767 1.63442C41.7831 1.63524 41.789 1.63849 41.7932 1.64353C41.7974 1.64857 41.7996 1.65502 41.7992 1.66159V1.72027C41.7992 1.72719 41.802 1.73383 41.8068 1.73872C41.8116 1.74361 41.8182 1.74636 41.8251 1.74636H41.8584C41.8652 1.74636 41.8718 1.74361 41.8766 1.73872C41.8815 1.73383 41.8842 1.72719 41.8842 1.72027V1.2606C41.8842 1.25708 41.8849 1.2536 41.8863 1.25036C41.8876 1.24712 41.8896 1.2442 41.8921 1.24176C41.8946 1.23932 41.8976 1.23742 41.9009 1.23618C41.9041 1.23493 41.9076 1.23437 41.9111 1.23452C41.9179 1.23452 41.9245 1.23726 41.9293 1.24215C41.9342 1.24705 41.9369 1.25368 41.9369 1.2606V1.72027C41.9362 1.72346 41.9362 1.72676 41.9369 1.72995C41.9376 1.73313 41.939 1.73611 41.9411 1.73866C41.9431 1.74121 41.9456 1.74327 41.9485 1.74469C41.9514 1.7461 41.9546 1.74684 41.9579 1.74684C41.9611 1.74684 41.9643 1.7461 41.9672 1.74469C41.9701 1.74327 41.9727 1.74121 41.9747 1.73866C41.9767 1.73611 41.9781 1.73313 41.9788 1.72995C41.9796 1.72676 41.9796 1.72346 41.9788 1.72027V1.53662C41.9801 1.53048 41.9834 1.52496 41.9882 1.52099C41.993 1.51703 41.999 1.51486 42.0052 1.51486C42.0114 1.51486 42.0174 1.51703 42.0222 1.52099C42.027 1.52496 42.0303 1.53048 42.0315 1.53662V1.72027C42.0315 1.7344 42.0391 1.74636 42.0487 1.74636C42.0584 1.74636 42.0659 1.7344 42.0659 1.72027V1.16171C42.0659 1.15583 42.0678 1.15011 42.0713 1.14541L41.6035 0.079343H40.9486L40.2206 1.74636H40.5766C40.5905 1.74636 40.6024 1.73875 40.6024 1.73875Z" fill="url(#paint2_linear_35_167543)"/>
<path d="M42.2326 1.74636H42.3315L42.2068 1.46055V1.72027C42.2068 1.72719 42.2095 1.73383 42.2144 1.73872C42.2192 1.74361 42.2258 1.74636 42.2326 1.74636Z" fill="url(#paint3_linear_35_167543)"/>
<path d="M49.2795 1.7996H49.2472V3.46662H50V1.7996H49.3881C49.3813 1.7996 49.3747 1.80235 49.3699 1.80724C49.365 1.81213 49.3623 1.81877 49.3623 1.82569V1.89415C49.3611 1.90029 49.3578 1.90581 49.353 1.90978C49.3482 1.91374 49.3422 1.91591 49.336 1.91591C49.3298 1.91591 49.3237 1.91374 49.3189 1.90978C49.3141 1.90581 49.3108 1.90029 49.3096 1.89415V1.82569C49.3097 1.82186 49.3089 1.81807 49.3073 1.81459C49.3058 1.8111 49.3035 1.80801 49.3006 1.80552C49.2977 1.80303 49.2943 1.80121 49.2907 1.80019C49.2871 1.79917 49.2832 1.79897 49.2795 1.7996Z" fill="url(#paint4_linear_35_167543)"/>
<path d="M48.8429 1.79961C48.8361 1.79961 48.8295 1.80235 48.8247 1.80724C48.8198 1.81214 48.8171 1.81877 48.8171 1.82569V2.03107C48.8179 2.03502 48.8178 2.03909 48.8168 2.043C48.8159 2.04691 48.8141 2.05056 48.8116 2.05367C48.809 2.05679 48.8059 2.0593 48.8023 2.06103C48.7987 2.06275 48.7947 2.06365 48.7907 2.06365C48.7868 2.06365 48.7828 2.06275 48.7792 2.06103C48.7756 2.0593 48.7725 2.05679 48.7699 2.05367C48.7674 2.05056 48.7656 2.04691 48.7646 2.043C48.7637 2.03909 48.7636 2.03502 48.7644 2.03107V1.82569C48.7644 1.81156 48.7569 1.79961 48.7461 1.79961C48.7354 1.79961 48.7278 1.81156 48.7278 1.82569V1.98652C48.7278 1.99344 48.7251 2.00007 48.7203 2.00496C48.7154 2.00985 48.7089 2.0126 48.702 2.0126C48.6952 2.0126 48.6886 2.00985 48.6838 2.00496C48.6789 2.00007 48.6762 1.99344 48.6762 1.98652V1.82569C48.6762 1.81992 48.674 1.81439 48.6699 1.81032C48.6659 1.80624 48.6604 1.80395 48.6547 1.80395C48.649 1.80395 48.6435 1.80624 48.6395 1.81032C48.6355 1.81439 48.6332 1.81992 48.6332 1.82569V2.1517C48.6332 2.15862 48.6305 2.16525 48.6256 2.17014C48.6208 2.17503 48.6142 2.17778 48.6074 2.17778C48.6006 2.17778 48.594 2.17503 48.5891 2.17014C48.5843 2.16525 48.5816 2.15862 48.5816 2.1517V1.82569C48.5813 1.81867 48.5784 1.81204 48.5733 1.80717C48.5683 1.80231 48.5616 1.7996 48.5547 1.79961C48.5478 1.7996 48.5411 1.80231 48.5361 1.80717C48.5311 1.81204 48.5281 1.81867 48.5278 1.82569V2.1517C48.5278 2.15862 48.5251 2.16525 48.5203 2.17014C48.5154 2.17503 48.5089 2.17778 48.502 2.17778C48.4952 2.17778 48.4886 2.17503 48.4838 2.17014C48.4789 2.16525 48.4762 2.15862 48.4762 2.1517V1.82569C48.4762 1.81156 48.4687 1.79961 48.4611 1.79961C48.4536 1.79961 48.4461 1.81156 48.4461 1.82569V1.95609C48.4469 1.96004 48.4468 1.96411 48.4458 1.96802C48.4449 1.97193 48.4431 1.97557 48.4406 1.97869C48.438 1.98181 48.4349 1.98432 48.4313 1.98605C48.4277 1.98777 48.4237 1.98867 48.4197 1.98867C48.4158 1.98867 48.4118 1.98777 48.4082 1.98605C48.4046 1.98432 48.4014 1.98181 48.3989 1.97869C48.3964 1.97557 48.3946 1.97193 48.3936 1.96802C48.3927 1.96411 48.3926 1.96004 48.3934 1.95609V1.82569C48.394 1.81951 48.3922 1.81333 48.3884 1.80847C48.3846 1.8036 48.3791 1.80042 48.373 1.79961C48.3699 1.79988 48.3668 1.80077 48.3641 1.80223C48.3613 1.80369 48.3588 1.80569 48.3568 1.80812C48.3548 1.81054 48.3533 1.81334 48.3524 1.81636C48.3515 1.81937 48.3512 1.82254 48.3515 1.82569V2.00391C48.3502 2.01005 48.3469 2.01557 48.3421 2.01954C48.3373 2.0235 48.3313 2.02567 48.3251 2.02567C48.3189 2.02567 48.3129 2.0235 48.3081 2.01954C48.3033 2.01557 48.3 2.01005 48.2988 2.00391V1.83547L48.2461 1.99521V2.13105C48.2461 2.13797 48.2434 2.1446 48.2385 2.14949C48.2337 2.15438 48.2271 2.15713 48.2203 2.15713C48.2156 2.15719 48.2109 2.15589 48.2069 2.15339C48.2029 2.15089 48.1997 2.14729 48.1977 2.14301L48.0901 2.47663L47.8675 1.79961H47.8493C47.8423 1.7996 47.8356 1.80231 47.8306 1.80717C47.8256 1.81204 47.8227 1.81867 47.8224 1.82569V2.04303C47.8224 2.04994 47.8197 2.05658 47.8148 2.06147C47.81 2.06636 47.8034 2.06911 47.7966 2.06911C47.7897 2.06911 47.7832 2.06636 47.7783 2.06147C47.7735 2.05658 47.7708 2.04994 47.7708 2.04303V1.82569C47.7705 1.81867 47.7675 1.81204 47.7625 1.80717C47.7575 1.80231 47.7508 1.7996 47.7439 1.79961C47.737 1.79961 47.7305 1.80235 47.7256 1.80724C47.7208 1.81214 47.7181 1.81877 47.7181 1.82569V2.19843C47.7168 2.20457 47.7135 2.21009 47.7087 2.21406C47.7039 2.21802 47.6979 2.22019 47.6917 2.22019C47.6855 2.22019 47.6795 2.21802 47.6747 2.21406C47.6699 2.21009 47.6666 2.20457 47.6654 2.19843V2.11149C47.6654 2.09736 47.6578 2.08541 47.6482 2.08541C47.6385 2.08541 47.632 2.07346 47.632 2.05824V1.82569C47.632 1.81156 47.6256 1.79961 47.6181 1.79961C47.6105 1.79961 47.6052 1.81156 47.6052 1.82569V1.98652C47.6039 1.99266 47.6006 1.99818 47.5958 2.00215C47.591 2.00611 47.585 2.00828 47.5788 2.00828C47.5726 2.00828 47.5666 2.00611 47.5618 2.00215C47.557 1.99818 47.5537 1.99266 47.5525 1.98652V1.82569C47.5525 1.81156 47.546 1.79961 47.5396 1.79961C47.5331 1.79961 47.5267 1.81156 47.5267 1.82569V2.06476C47.5274 2.06871 47.5274 2.07278 47.5264 2.07669C47.5255 2.0806 47.5236 2.08424 47.5211 2.08736C47.5186 2.09048 47.5154 2.09299 47.5118 2.09472C47.5082 2.09644 47.5043 2.09734 47.5003 2.09734C47.4963 2.09734 47.4924 2.09644 47.4888 2.09472C47.4852 2.09299 47.482 2.09048 47.4795 2.08736C47.477 2.08424 47.4752 2.0806 47.4742 2.07669C47.4733 2.07278 47.4732 2.06871 47.474 2.06476V1.82569C47.474 1.81156 47.474 1.79961 47.4643 1.79961C47.4546 1.79961 47.4535 1.81156 47.4535 1.82569V1.98652C47.4535 2.00065 47.4471 2.0126 47.4374 2.0126C47.4277 2.0126 47.4213 2.02455 47.4213 2.03868V2.25602C47.4214 2.25954 47.4209 2.26305 47.4196 2.26634C47.4184 2.26963 47.4165 2.27263 47.4141 2.27517C47.4117 2.27771 47.4088 2.27973 47.4056 2.28111C47.4024 2.28249 47.3989 2.28319 47.3955 2.28319C47.3885 2.28291 47.382 2.27992 47.3771 2.27486C47.3723 2.26979 47.3696 2.26304 47.3697 2.25602V1.82134C47.3697 1.80721 47.3632 1.79526 47.3567 1.79526C47.3503 1.79526 47.3438 1.80721 47.3438 1.82134V1.98217C47.3426 1.98831 47.3393 1.99384 47.3345 1.9978C47.3297 2.00177 47.3237 2.00393 47.3175 2.00393C47.3113 2.00393 47.3053 2.00177 47.3005 1.9978C47.2957 1.99384 47.2924 1.98831 47.2911 1.98217V1.82569C47.2911 1.81156 47.2825 1.79961 47.2718 1.79961C47.261 1.79961 47.2524 1.81156 47.2524 1.82569V2.05498L47.7568 3.4677H48.4117L49.0074 1.80069L48.8429 1.79961Z" fill="url(#paint5_linear_35_167543)"/>
<path d="M46.89 1.82569V1.91371C46.89 1.92784 46.8825 1.93979 46.8728 1.93979C46.8632 1.93979 46.8556 1.95066 46.8556 1.9637C46.8551 1.97042 46.852 1.97667 46.847 1.98113C46.8419 1.98559 46.8354 1.98791 46.8287 1.98761C46.8219 1.98761 46.8153 1.98486 46.8105 1.97997C46.8056 1.97508 46.8029 1.96844 46.8029 1.96152V1.82569C46.8029 1.81156 46.7965 1.7996 46.789 1.7996C46.7814 1.7996 46.7739 1.81156 46.7739 1.82569V2.27341C46.7739 2.28033 46.7712 2.28696 46.7663 2.29185C46.7615 2.29674 46.7549 2.29949 46.7481 2.29949C46.7412 2.29949 46.7347 2.29674 46.7298 2.29185C46.725 2.28696 46.7223 2.28033 46.7223 2.27341V1.82569C46.7223 1.81156 46.7147 1.7996 46.7072 1.7996C46.6997 1.7996 46.6922 1.81156 46.6922 1.82569V2.70049C46.6909 2.70663 46.6876 2.71215 46.6828 2.71612C46.678 2.72008 46.672 2.72225 46.6658 2.72225C46.6596 2.72225 46.6536 2.72008 46.6488 2.71612C46.644 2.71215 46.6407 2.70663 46.6395 2.70049V1.83112C46.6395 1.81699 46.6319 1.80504 46.6233 1.80504C46.6147 1.80504 46.6083 1.81699 46.6083 1.83112V2.06476C46.6071 2.0709 46.6038 2.07642 46.599 2.08039C46.5942 2.08436 46.5881 2.08652 46.5819 2.08652C46.5757 2.08652 46.5697 2.08436 46.5649 2.08039C46.5601 2.07642 46.5568 2.0709 46.5556 2.06476V1.82569C46.5556 1.81156 46.5556 1.7996 46.5448 1.7996C46.5341 1.7996 46.533 1.81156 46.533 1.82569V2.41251C46.533 2.41943 46.5303 2.42606 46.5255 2.43095C46.5206 2.43584 46.514 2.43859 46.5072 2.43859C46.5004 2.43859 46.4938 2.43584 46.489 2.43095C46.4841 2.42606 46.4814 2.41943 46.4814 2.41251V1.82569C46.4811 1.81867 46.4782 1.81204 46.4732 1.80717C46.4681 1.80231 46.4615 1.7996 46.4545 1.7996C46.4476 1.7996 46.4409 1.80231 46.4359 1.80717C46.4309 1.81204 46.4279 1.81867 46.4276 1.82569V2.70049C46.4276 2.7074 46.4249 2.71404 46.4201 2.71893C46.4152 2.72382 46.4087 2.72657 46.4018 2.72657C46.395 2.72657 46.3884 2.72382 46.3836 2.71893C46.3787 2.71404 46.376 2.7074 46.376 2.70049V1.83112C46.3763 1.82467 46.3741 1.81834 46.3699 1.81348C46.3657 1.80862 46.3598 1.80559 46.3534 1.80504C46.3471 1.80559 46.3411 1.80862 46.3369 1.81348C46.3327 1.81834 46.3305 1.82467 46.3308 1.83112V2.01043C46.3296 2.01657 46.3263 2.02209 46.3215 2.02606C46.3167 2.03002 46.3107 2.03219 46.3045 2.03219C46.2983 2.03219 46.2923 2.03002 46.2875 2.02606C46.2827 2.02209 46.2794 2.01657 46.2782 2.01043V1.82569C46.2782 1.81906 46.2755 1.8127 46.2709 1.80801C46.2663 1.80332 46.26 1.80069 46.2534 1.80069C46.2469 1.80069 46.2406 1.80332 46.2359 1.80801C46.2313 1.8127 46.2287 1.81906 46.2287 1.82569V2.06476C46.2275 2.0709 46.2242 2.07642 46.2194 2.08039C46.2146 2.08436 46.2085 2.08652 46.2023 2.08652C46.1961 2.08652 46.1901 2.08436 46.1853 2.08039C46.1805 2.07642 46.1772 2.0709 46.176 2.06476V3.46662H46.9223V1.7996C46.9184 1.79859 46.9143 1.7985 46.9104 1.79935C46.9065 1.8002 46.9028 1.80196 46.8997 1.80449C46.8966 1.80702 46.8941 1.81025 46.8924 1.81393C46.8907 1.81761 46.8899 1.82164 46.89 1.82569Z" fill="url(#paint6_linear_35_167543)"/>
<path d="M47.2535 1.55075C47.2535 1.54383 47.2562 1.5372 47.2611 1.53231C47.2659 1.52742 47.2725 1.52467 47.2793 1.52467C47.2862 1.52467 47.2927 1.52742 47.2976 1.53231C47.3024 1.5372 47.3051 1.54383 47.3051 1.55075V1.72028C47.3051 1.7344 47.3105 1.74636 47.317 1.74636C47.3234 1.74636 47.3288 1.7344 47.3288 1.72028V1.604C47.3286 1.60048 47.3292 1.59697 47.3304 1.59368C47.3317 1.59039 47.3335 1.58739 47.336 1.58485C47.3384 1.58231 47.3413 1.58029 47.3445 1.57891C47.3477 1.57754 47.3511 1.57683 47.3546 1.57683C47.3615 1.57711 47.3681 1.5801 47.3729 1.58516C47.3777 1.59023 47.3804 1.59698 47.3804 1.604V1.72028C47.3798 1.72645 47.3816 1.73263 47.3854 1.7375C47.3892 1.74236 47.3947 1.74554 47.4008 1.74636C47.4069 1.74554 47.4125 1.74236 47.4163 1.7375C47.4201 1.73263 47.4219 1.72645 47.4213 1.72028V1.41274C47.4225 1.40659 47.4258 1.40107 47.4306 1.39711C47.4354 1.39314 47.4414 1.39097 47.4476 1.39097C47.4538 1.39097 47.4598 1.39314 47.4646 1.39711C47.4694 1.40107 47.4727 1.40659 47.474 1.41274V1.72354C47.474 1.7293 47.4762 1.73483 47.4803 1.7389C47.4843 1.74298 47.4898 1.74527 47.4955 1.74527C47.5012 1.74527 47.5066 1.74298 47.5107 1.7389C47.5147 1.73483 47.517 1.7293 47.517 1.72354V1.58009C47.517 1.57317 47.5197 1.56654 47.5245 1.56165C47.5294 1.55676 47.5359 1.55401 47.5428 1.55401C47.5496 1.55401 47.5562 1.55676 47.561 1.56165C47.5659 1.56654 47.5686 1.57317 47.5686 1.58009V1.72028C47.5686 1.7344 47.5761 1.74636 47.5847 1.74636C47.5933 1.74636 47.6009 1.7344 47.6009 1.72028V1.68985C47.6021 1.68371 47.6054 1.67818 47.6102 1.67422C47.615 1.67025 47.621 1.66809 47.6272 1.66809C47.6334 1.66809 47.6394 1.67025 47.6442 1.67422C47.649 1.67818 47.6523 1.68371 47.6536 1.68985V1.72028C47.6536 1.7344 47.6611 1.74636 47.6708 1.74636C47.6804 1.74636 47.688 1.7344 47.688 1.72028V1.58009C47.688 1.56596 47.6933 1.55401 47.7009 1.55401C47.7084 1.55401 47.7138 1.54205 47.7138 1.52684V1.35623L47.2922 0.079343H46.1728V1.74636C46.1796 1.74636 46.1862 1.74361 46.191 1.73872C46.1959 1.73383 46.1986 1.72719 46.1986 1.72028V1.70506C46.1986 1.69093 46.2061 1.67898 46.2158 1.67898C46.2255 1.67898 46.2341 1.66703 46.2341 1.65181V1.54314C46.2339 1.53963 46.2345 1.53612 46.2357 1.53283C46.2369 1.52954 46.2388 1.52653 46.2412 1.52399C46.2436 1.52145 46.2465 1.51944 46.2497 1.51806C46.2529 1.51668 46.2564 1.51597 46.2599 1.51597C46.2668 1.51625 46.2734 1.51924 46.2782 1.5243C46.283 1.52937 46.2857 1.53612 46.2857 1.54314V1.72136C46.2857 1.73549 46.2932 1.74744 46.3029 1.74744C46.3126 1.74744 46.3201 1.73549 46.3201 1.72136V1.66159C46.3213 1.65545 46.3246 1.64993 46.3294 1.64596C46.3342 1.642 46.3402 1.63983 46.3464 1.63983C46.3526 1.63983 46.3587 1.642 46.3634 1.64596C46.3683 1.64993 46.3715 1.65545 46.3728 1.66159V1.72136C46.3728 1.72828 46.3755 1.73491 46.3803 1.7398C46.3852 1.7447 46.3917 1.74744 46.3986 1.74744C46.4054 1.74744 46.412 1.7447 46.4168 1.7398C46.4217 1.73491 46.4244 1.72828 46.4244 1.72136V1.13997C46.4256 1.13383 46.4289 1.12831 46.4337 1.12434C46.4385 1.12038 46.4445 1.11821 46.4507 1.11821C46.4569 1.11821 46.463 1.12038 46.4678 1.12434C46.4726 1.12831 46.4759 1.13383 46.4771 1.13997V1.72028C46.4771 1.7344 46.4846 1.74636 46.4932 1.74636C46.5018 1.74636 46.5094 1.7344 46.5094 1.72028V1.47468C46.5106 1.46854 46.5139 1.46302 46.5187 1.45905C46.5235 1.45508 46.5295 1.45292 46.5357 1.45292C46.5419 1.45292 46.5479 1.45508 46.5527 1.45905C46.5575 1.46302 46.5608 1.46854 46.562 1.47468V1.60834C46.562 1.62247 46.562 1.63442 46.5728 1.63442C46.5836 1.63442 46.5825 1.62247 46.5825 1.60834V1.54205C46.5817 1.53811 46.5818 1.53403 46.5827 1.53013C46.5837 1.52622 46.5855 1.52257 46.588 1.51946C46.5905 1.51634 46.5937 1.51383 46.5973 1.5121C46.6009 1.51038 46.6048 1.50948 46.6088 1.50948C46.6128 1.50948 46.6167 1.51038 46.6203 1.5121C46.6239 1.51383 46.6271 1.51634 46.6296 1.51946C46.6322 1.52257 46.634 1.52622 46.6349 1.53013C46.6359 1.53403 46.636 1.53811 46.6352 1.54205V1.72028C46.6352 1.7344 46.6438 1.74636 46.6545 1.74636C46.6653 1.74636 46.6739 1.7344 46.6739 1.72028V1.13997C46.6751 1.13383 46.6784 1.12831 46.6832 1.12434C46.688 1.12038 46.694 1.11821 46.7002 1.11821C46.7064 1.11821 46.7124 1.12038 46.7172 1.12434C46.722 1.12831 46.7253 1.13383 46.7266 1.13997V1.60834C46.7266 1.62247 46.733 1.63442 46.7406 1.63442C46.7481 1.63442 46.7556 1.62247 46.7556 1.60834V1.43012C46.7548 1.42618 46.7549 1.4221 46.7559 1.41819C46.7568 1.41429 46.7586 1.41064 46.7611 1.40752C46.7637 1.40441 46.7668 1.40189 46.7704 1.40017C46.774 1.39844 46.778 1.39755 46.782 1.39755C46.7859 1.39755 46.7899 1.39844 46.7935 1.40017C46.7971 1.40189 46.8003 1.40441 46.8028 1.40752C46.8053 1.41064 46.8071 1.41429 46.8081 1.41819C46.809 1.4221 46.8091 1.42618 46.8083 1.43012V1.60834C46.8083 1.62247 46.8137 1.63442 46.8212 1.63442C46.8287 1.63442 46.833 1.62247 46.833 1.60834V1.54205C46.8322 1.53811 46.8323 1.53403 46.8333 1.53013C46.8342 1.52622 46.8361 1.52257 46.8386 1.51946C46.8411 1.51634 46.8443 1.51383 46.8479 1.5121C46.8515 1.51038 46.8554 1.50948 46.8594 1.50948C46.8634 1.50948 46.8673 1.51038 46.8709 1.5121C46.8745 1.51383 46.8777 1.51634 46.8802 1.51946C46.8827 1.52257 46.8845 1.52622 46.8855 1.53013C46.8864 1.53403 46.8865 1.53811 46.8857 1.54205V1.72028C46.8857 1.72719 46.8885 1.73383 46.8933 1.73872C46.8981 1.74361 46.9047 1.74636 46.9115 1.74636V1.12258L47.1341 1.74636H47.1395C47.1465 1.74636 47.1531 1.74365 47.1582 1.73879C47.1632 1.73392 47.1661 1.72729 47.1664 1.72028V1.33123C47.1664 1.32432 47.1691 1.31768 47.174 1.31279C47.1788 1.3079 47.1854 1.30515 47.1922 1.30515C47.1991 1.30515 47.2056 1.3079 47.2105 1.31279C47.2153 1.31768 47.218 1.32432 47.218 1.33123V1.72028C47.218 1.7344 47.2245 1.74636 47.232 1.74636C47.2395 1.74636 47.246 1.7344 47.246 1.72028L47.2535 1.55075Z" fill="url(#paint7_linear_35_167543)"/>
<path d="M47.8105 1.74636H47.8428L47.7837 1.56596C47.7843 1.57065 47.7843 1.5754 47.7837 1.58009V1.72027C47.7837 1.72379 47.7844 1.72728 47.7857 1.73051C47.7871 1.73375 47.7891 1.73668 47.7916 1.73911C47.7941 1.74155 47.7971 1.74345 47.8003 1.74469C47.8036 1.74594 47.8071 1.7465 47.8105 1.74636Z" fill="url(#paint8_linear_35_167543)"/>
<path d="M48.3568 1.72027V1.71375C48.3581 1.70761 48.3614 1.70209 48.3662 1.69813C48.371 1.69416 48.377 1.69199 48.3832 1.69199C48.3894 1.69199 48.3954 1.69416 48.4002 1.69813C48.405 1.70209 48.4083 1.70761 48.4095 1.71375V1.72027C48.4095 1.72719 48.4122 1.73383 48.4171 1.73872C48.4219 1.74361 48.4285 1.74636 48.4353 1.74636H48.4837C48.4907 1.74636 48.4974 1.74365 48.5024 1.73879C48.5074 1.73392 48.5103 1.72729 48.5106 1.72027V1.6529C48.5106 1.63877 48.5106 1.62682 48.5214 1.62682C48.5321 1.62682 48.5321 1.61486 48.5321 1.60074V1.41274C48.5334 1.40659 48.5367 1.40107 48.5415 1.39711C48.5463 1.39314 48.5523 1.39097 48.5585 1.39097C48.5647 1.39097 48.5707 1.39314 48.5755 1.39711C48.5803 1.40107 48.5836 1.40659 48.5848 1.41274V1.604C48.5848 1.61812 48.5902 1.63008 48.5966 1.63008C48.6031 1.63008 48.6074 1.64203 48.6074 1.65616V1.72353C48.6067 1.72672 48.6067 1.73002 48.6074 1.73321C48.6081 1.73639 48.6095 1.73937 48.6116 1.74192C48.6136 1.74447 48.6161 1.74653 48.619 1.74795C48.6219 1.74936 48.6251 1.7501 48.6284 1.7501C48.6316 1.7501 48.6348 1.74936 48.6377 1.74795C48.6406 1.74653 48.6432 1.74447 48.6452 1.74192C48.6472 1.73937 48.6486 1.73639 48.6493 1.73321C48.65 1.73002 48.6501 1.72672 48.6493 1.72353V1.68007C48.6506 1.67392 48.6539 1.6684 48.6587 1.66444C48.6635 1.66047 48.6695 1.6583 48.6757 1.6583C48.6819 1.6583 48.6879 1.66047 48.6927 1.66444C48.6975 1.6684 48.7008 1.67392 48.702 1.68007V1.72353C48.702 1.73766 48.702 1.74962 48.7117 1.74962L48.7151 1.74939L48.7181 1.74786L48.7203 1.74527L48.7214 1.74201C48.7214 1.74201 48.7332 1.73331 48.7472 1.73331C48.7612 1.73331 48.773 1.73332 48.773 1.74201C48.773 1.7507 48.7784 1.74962 48.7848 1.74962C48.7913 1.74962 48.7956 1.73766 48.7956 1.72353V1.68007C48.7956 1.66594 48.8042 1.65399 48.8149 1.65399C48.8257 1.65399 48.8343 1.64203 48.8343 1.6279V1.57248C48.8343 1.56906 48.835 1.56567 48.8363 1.5625C48.8376 1.55934 48.8395 1.55646 48.8419 1.55404C48.8443 1.55162 48.8471 1.5497 48.8502 1.54839C48.8534 1.54708 48.8567 1.5464 48.8601 1.5464C48.867 1.5464 48.8735 1.54915 48.8784 1.55404C48.8832 1.55893 48.8859 1.56556 48.8859 1.57248V1.72353C48.8862 1.73055 48.8891 1.73718 48.8942 1.74205C48.8992 1.74691 48.9059 1.74962 48.9128 1.74962H49.0322L49.2472 1.12258V1.70071C49.2539 1.70041 49.2604 1.70273 49.2654 1.70719C49.2705 1.71165 49.2736 1.7179 49.2741 1.72462C49.2747 1.73106 49.2777 1.73703 49.2825 1.74129C49.2873 1.74554 49.2935 1.74775 49.2999 1.74744H49.3838C49.3902 1.74775 49.3965 1.74554 49.4013 1.74129C49.4061 1.73703 49.4091 1.73106 49.4096 1.72462C49.4098 1.72134 49.4105 1.71811 49.4119 1.71514C49.4133 1.71216 49.4152 1.70948 49.4176 1.70726C49.42 1.70504 49.4228 1.70332 49.4259 1.70219C49.4289 1.70107 49.4322 1.70057 49.4354 1.70071C49.4505 1.70071 49.4623 1.70832 49.4623 1.71593C49.4622 1.71778 49.4624 1.71965 49.463 1.72142C49.4635 1.72319 49.4644 1.72483 49.4656 1.72625C49.4668 1.72766 49.4683 1.72882 49.4699 1.72966C49.4716 1.7305 49.4734 1.731 49.4752 1.73114C49.4827 1.73114 49.4881 1.73114 49.4881 1.73984C49.4881 1.74853 49.5 1.74744 49.5139 1.74744H49.6774C49.6924 1.74744 49.7043 1.74201 49.7043 1.7344C49.7043 1.72679 49.7161 1.72136 49.7301 1.72136C49.7441 1.72136 49.7559 1.72679 49.7559 1.7344C49.7559 1.74201 49.7656 1.74744 49.7763 1.74744C49.7871 1.74744 49.7967 1.74201 49.7967 1.7344C49.7967 1.72679 49.8086 1.72136 49.8236 1.72136C49.8387 1.72136 49.8494 1.72679 49.8494 1.7344C49.8494 1.74201 49.8613 1.74744 49.8753 1.74744H50V0.079343H48.8762L48.3256 1.74636H48.331C48.3379 1.74636 48.3444 1.74361 48.3493 1.73872C48.3541 1.73383 48.3568 1.72719 48.3568 1.72027Z" fill="url(#paint9_linear_35_167543)"/>
<path d="M42.9725 1.74636C42.9757 1.74622 42.9789 1.74543 42.9819 1.74404C42.9848 1.74266 42.9875 1.7407 42.9897 1.73827C42.9919 1.73585 42.9936 1.73301 42.9947 1.72993C42.9958 1.72684 42.9963 1.72356 42.9961 1.72027V1.21604C42.9974 1.2099 43.0007 1.20438 43.0055 1.20041C43.0103 1.19645 43.0163 1.19428 43.0225 1.19428C43.0287 1.19428 43.0347 1.19645 43.0395 1.20041C43.0443 1.20438 43.0476 1.2099 43.0488 1.21604V1.72027C43.0488 1.72662 43.0513 1.7327 43.0558 1.73718C43.0602 1.74166 43.0662 1.74418 43.0725 1.74418C43.0788 1.74418 43.0848 1.74166 43.0892 1.73718C43.0937 1.7327 43.0961 1.72662 43.0961 1.72027V0.769403C43.0961 0.762486 43.0989 0.755853 43.1037 0.750961C43.1085 0.74607 43.1151 0.743322 43.122 0.743322C43.1288 0.743322 43.1354 0.74607 43.1402 0.750961C43.145 0.755853 43.1478 0.762486 43.1478 0.769403V1.72027C43.1478 1.7344 43.1553 1.74636 43.165 1.74636C43.1746 1.74636 43.1822 1.7344 43.1822 1.72027V0.984572C43.1822 0.977655 43.1849 0.971021 43.1897 0.96613C43.1946 0.961239 43.2011 0.958491 43.208 0.958491C43.2148 0.958491 43.2214 0.961239 43.2262 0.96613C43.2311 0.971021 43.2338 0.977655 43.2338 0.984572V1.72027C43.2338 1.7344 43.2424 1.74636 43.251 1.74636C43.2596 1.74636 43.2682 1.7344 43.2682 1.72027V0.869381C43.2674 0.865435 43.2675 0.861361 43.2685 0.857452C43.2694 0.853544 43.2712 0.849899 43.2737 0.846781C43.2763 0.843664 43.2794 0.841152 43.283 0.839427C43.2866 0.837702 43.2906 0.836807 43.2945 0.836807C43.2985 0.836807 43.3025 0.837702 43.3061 0.839427C43.3097 0.841152 43.3128 0.843664 43.3154 0.846781C43.3179 0.849899 43.3197 0.853544 43.3206 0.857452C43.3216 0.861361 43.3217 0.865435 43.3209 0.869381V1.72027C43.3209 1.7344 43.3263 1.74636 43.3338 1.74636C43.3413 1.74636 43.3467 1.7344 43.3467 1.72027V1.21604C43.3479 1.2099 43.3512 1.20438 43.356 1.20041C43.3608 1.19645 43.3668 1.19428 43.3731 1.19428C43.3792 1.19428 43.3853 1.19645 43.3901 1.20041C43.3949 1.20438 43.3982 1.2099 43.3994 1.21604V1.72027C43.3994 1.72719 43.4021 1.73383 43.407 1.73872C43.4118 1.74361 43.4184 1.74636 43.4252 1.74636H43.4403C43.4471 1.74636 43.4537 1.74361 43.4585 1.73872C43.4633 1.73383 43.4661 1.72719 43.4661 1.72027V1.28559C43.4673 1.27945 43.4706 1.27393 43.4754 1.26996C43.4802 1.266 43.4862 1.26383 43.4924 1.26383C43.4986 1.26383 43.5046 1.266 43.5094 1.26996C43.5142 1.27393 43.5175 1.27945 43.5188 1.28559V1.4725C43.5708 1.278 43.673 1.10094 43.8149 0.959423C43.9568 0.817908 44.1334 0.717014 44.3265 0.667056C44.5197 0.617098 44.7225 0.619868 44.9142 0.675082C45.106 0.730295 45.2798 0.835973 45.4179 0.981312L45.9641 0.449911C45.6415 0.158597 45.2236 -0.0016734 44.7909 1.31771e-05H44.4178C44.1263 -9.83685e-05 43.8394 0.0732862 43.5831 0.213517C43.3268 0.353749 43.1091 0.556394 42.9499 0.803092V1.72027C42.9496 1.72673 42.9518 1.73305 42.956 1.73791C42.9602 1.74277 42.9661 1.7458 42.9725 1.74636Z" fill="url(#paint10_linear_35_167543)"/>
<path d="M44.6049 1.45512V1.74636H45.3878C45.3941 1.74666 45.4004 1.74445 45.4052 1.7402C45.41 1.73594 45.413 1.72997 45.4136 1.72353C45.4136 1.71049 45.42 1.69963 45.4265 1.69963C45.4329 1.69963 45.4394 1.68767 45.4394 1.67355V1.66159C45.4406 1.65545 45.4439 1.64993 45.4487 1.64596C45.4535 1.642 45.4595 1.63983 45.4657 1.63983C45.4719 1.63983 45.4779 1.642 45.4827 1.64596C45.4875 1.64993 45.4908 1.65545 45.4921 1.66159V1.72027C45.4921 1.7344 45.5007 1.74636 45.5114 1.74636C45.5222 1.74636 45.5297 1.7344 45.5297 1.72027V1.66159C45.5309 1.65545 45.5342 1.64993 45.539 1.64596C45.5438 1.642 45.5498 1.63983 45.556 1.63983C45.5622 1.63983 45.5683 1.642 45.5731 1.64596C45.5779 1.64993 45.5812 1.65545 45.5824 1.66159V1.72027C45.5824 1.72719 45.5851 1.73383 45.59 1.73872C45.5948 1.74361 45.6014 1.74636 45.6082 1.74636H45.7157C45.7308 1.74636 45.7426 1.74636 45.7426 1.73658C45.7426 1.72679 45.7512 1.72571 45.762 1.72571C45.7648 1.72544 45.7676 1.7246 45.7701 1.72325C45.7726 1.7219 45.7748 1.72006 45.7766 1.71783C45.7784 1.71561 45.7797 1.71305 45.7806 1.7103C45.7814 1.70755 45.7816 1.70466 45.7813 1.7018C45.7819 1.69536 45.7849 1.68939 45.7897 1.68514C45.7945 1.68088 45.8008 1.67867 45.8071 1.67898C45.8141 1.67897 45.8208 1.68169 45.8258 1.68655C45.8308 1.69141 45.8338 1.69805 45.834 1.70506V1.72027C45.834 1.7344 45.8394 1.74636 45.8469 1.74636C45.8545 1.74636 45.8598 1.74636 45.8598 1.73658C45.8598 1.72679 45.8717 1.72571 45.8856 1.72571C45.8996 1.72571 45.9125 1.72571 45.9125 1.73658C45.9125 1.74744 45.9244 1.74636 45.9383 1.74636H45.9641V1.45512H44.6049Z" fill="url(#paint11_linear_35_167543)"/>
<path d="M45.9136 1.82569V1.86698C45.9136 1.88111 45.9072 1.89306 45.9007 1.89306C45.8942 1.89306 45.8867 1.90502 45.8867 1.91914C45.8867 1.92606 45.884 1.93269 45.8792 1.93758C45.8743 1.94248 45.8678 1.94522 45.8609 1.94522C45.8541 1.94522 45.8475 1.94248 45.8427 1.93758C45.8378 1.93269 45.8351 1.92606 45.8351 1.91914V1.82569C45.8351 1.81156 45.8287 1.7996 45.8222 1.7996C45.8157 1.7996 45.8082 1.81156 45.8082 1.82569V1.91914C45.8082 1.92606 45.8055 1.93269 45.8007 1.93758C45.7958 1.94248 45.7893 1.94522 45.7824 1.94522C45.7756 1.94522 45.769 1.94248 45.7642 1.93758C45.7593 1.93269 45.7566 1.92606 45.7566 1.91914V1.82569C45.7566 1.81963 45.7542 1.81383 45.75 1.80955C45.7458 1.80527 45.74 1.80286 45.734 1.80286C45.728 1.80286 45.7223 1.80527 45.7181 1.80955C45.7138 1.81383 45.7114 1.81963 45.7114 1.82569V1.87567C45.7114 1.88259 45.7087 1.88923 45.7039 1.89412C45.699 1.89901 45.6925 1.90176 45.6856 1.90176C45.6788 1.90176 45.6722 1.89901 45.6674 1.89412C45.6625 1.88923 45.6598 1.88259 45.6598 1.87567V1.82569C45.6598 1.81156 45.6512 1.7996 45.6405 1.7996C45.6297 1.7996 45.6211 1.81156 45.6211 1.82569V1.91914C45.6219 1.92309 45.6218 1.92716 45.6209 1.93107C45.6199 1.93498 45.6181 1.93862 45.6156 1.94174C45.6131 1.94486 45.6099 1.94737 45.6063 1.9491C45.6027 1.95082 45.5987 1.95172 45.5948 1.95172C45.5908 1.95172 45.5868 1.95082 45.5832 1.9491C45.5796 1.94737 45.5765 1.94486 45.5739 1.94174C45.5714 1.93862 45.5696 1.93498 45.5687 1.93107C45.5677 1.92716 45.5676 1.92309 45.5684 1.91914V1.82569C45.5684 1.81156 45.5684 1.7996 45.5555 1.7996C45.5426 1.7996 45.5437 1.81156 45.5437 1.82569V2.06476C45.5424 2.0709 45.5391 2.07643 45.5343 2.08039C45.5295 2.08436 45.5235 2.08652 45.5173 2.08652C45.5111 2.08652 45.5051 2.08436 45.5003 2.08039C45.4955 2.07643 45.4922 2.0709 45.491 2.06476V1.82569C45.491 1.81156 45.4824 1.7996 45.4727 1.7996C45.463 1.7996 45.4534 1.81156 45.4534 1.82569V1.96913C45.4521 1.97527 45.4488 1.98079 45.444 1.98476C45.4392 1.98873 45.4332 1.99089 45.427 1.99089C45.4208 1.99089 45.4148 1.98873 45.41 1.98476C45.4052 1.98079 45.4019 1.97527 45.4007 1.96913V1.82569C45.4007 1.81877 45.3979 1.81213 45.3931 1.80724C45.3883 1.80235 45.3817 1.7996 45.3748 1.7996H44.607V2.09084H45.2318V2.71679C45.0473 2.8426 44.8296 2.9096 44.607 2.90914C44.3868 2.90925 44.1713 2.84403 43.9874 2.72155C43.8036 2.59908 43.6593 2.42474 43.5725 2.22016V2.32883C43.5713 2.33497 43.568 2.3405 43.5632 2.34446C43.5584 2.34843 43.5524 2.35059 43.5462 2.35059C43.54 2.35059 43.534 2.34843 43.5292 2.34446C43.5244 2.3405 43.5211 2.33497 43.5198 2.32883V2.0702C43.497 1.98505 43.484 1.89754 43.4811 1.80939C43.48 1.81476 43.48 1.82031 43.4811 1.82569V2.51792C43.4819 2.52187 43.4818 2.52594 43.4809 2.52985C43.4799 2.53376 43.4781 2.5374 43.4756 2.54052C43.4731 2.54364 43.4699 2.54615 43.4663 2.54787C43.4627 2.5496 43.4588 2.55049 43.4548 2.55049C43.4508 2.55049 43.4469 2.5496 43.4433 2.54787C43.4397 2.54615 43.4365 2.54364 43.434 2.54052C43.4314 2.5374 43.4296 2.53376 43.4287 2.52985C43.4277 2.52594 43.4276 2.52187 43.4284 2.51792V1.82569C43.4286 1.82231 43.428 1.81895 43.4269 1.81579C43.4257 1.81263 43.4239 1.80974 43.4216 1.80731C43.4193 1.80487 43.4165 1.80293 43.4134 1.80161C43.4103 1.80028 43.407 1.7996 43.4037 1.7996C43.397 1.79989 43.3907 1.80276 43.3861 1.80762C43.3815 1.81248 43.379 1.81895 43.379 1.82569V2.58638C43.379 2.5933 43.3762 2.59993 43.3714 2.60483C43.3666 2.60972 43.36 2.61246 43.3532 2.61246C43.3463 2.61246 43.3397 2.60972 43.3349 2.60483C43.3301 2.59993 43.3273 2.5933 43.3273 2.58638V1.82569C43.3273 1.81156 43.3198 1.7996 43.3101 1.7996C43.3005 1.7996 43.2929 1.81156 43.2929 1.82569V2.88088C43.2917 2.88702 43.2884 2.89254 43.2836 2.89651C43.2788 2.90048 43.2728 2.90264 43.2666 2.90264C43.2604 2.90264 43.2544 2.90048 43.2496 2.89651C43.2448 2.89254 43.2415 2.88702 43.2402 2.88088V1.82569C43.2405 1.81923 43.2384 1.81291 43.2341 1.80805C43.2299 1.80319 43.224 1.80016 43.2177 1.7996C43.2144 1.79974 43.2112 1.80053 43.2083 1.80192C43.2053 1.8033 43.2027 1.80526 43.2005 1.80769C43.1983 1.81011 43.1966 1.81295 43.1955 1.81603C43.1944 1.81912 43.1939 1.8224 43.194 1.82569V2.77656C43.194 2.78008 43.1933 2.78356 43.1919 2.7868C43.1906 2.79003 43.1886 2.79296 43.1861 2.79539C43.1835 2.79783 43.1806 2.79973 43.1773 2.80097C43.1741 2.80222 43.1706 2.80278 43.1671 2.80264C43.1603 2.80264 43.1537 2.79989 43.1489 2.795C43.144 2.79011 43.1413 2.78347 43.1413 2.77656V1.82569C43.1413 1.81156 43.1338 1.7996 43.1241 1.7996C43.1144 1.7996 43.108 1.81156 43.108 1.82569V2.77656C43.108 2.78008 43.1073 2.78356 43.1059 2.7868C43.1045 2.79003 43.1025 2.79296 43.1 2.79539C43.0975 2.79783 43.0945 2.79973 43.0913 2.80097C43.088 2.80222 43.0846 2.80278 43.0811 2.80264C43.0742 2.80264 43.0677 2.79989 43.0628 2.795C43.058 2.79011 43.0553 2.78347 43.0553 2.77656V1.82569C43.0553 1.81934 43.0528 1.81326 43.0483 1.80878C43.0439 1.8043 43.0379 1.80178 43.0316 1.80178C43.0253 1.80178 43.0193 1.8043 43.0149 1.80878C43.0105 1.81326 43.008 1.81934 43.008 1.82569V2.54509C43.008 2.55201 43.0052 2.55864 43.0004 2.56353C42.9956 2.56842 42.989 2.57117 42.9821 2.57117C42.9753 2.57117 42.9687 2.56842 42.9639 2.56353C42.9591 2.55864 42.9563 2.55201 42.9563 2.54509V1.82569C42.9563 1.81156 42.9499 1.7996 42.9424 1.7996C42.9348 1.7996 42.9295 1.81156 42.9295 1.82569V2.70157C43.0864 2.95968 43.3062 3.17282 43.5679 3.32064C43.8296 3.46846 44.1244 3.54603 44.4242 3.54595H44.7974C45.2301 3.54647 45.6476 3.38504 45.9695 3.09279V1.7996H45.9437C45.94 1.79897 45.9362 1.79917 45.9325 1.80019C45.9289 1.80121 45.9255 1.80303 45.9226 1.80552C45.9197 1.80801 45.9174 1.8111 45.9159 1.81459C45.9143 1.81807 45.9136 1.82186 45.9136 1.82569Z" fill="url(#paint12_linear_35_167543)"/>
<path d="M42.7778 1.74636C42.7843 1.74636 42.7897 1.7344 42.7897 1.72027V1.22256C42.7909 1.21642 42.7942 1.2109 42.799 1.20693C42.8038 1.20297 42.8098 1.2008 42.816 1.2008C42.8222 1.2008 42.8282 1.20297 42.833 1.20693C42.8378 1.2109 42.8411 1.21642 42.8423 1.22256V1.72027C42.8423 1.72719 42.8451 1.73383 42.8499 1.73872C42.8547 1.74361 42.8613 1.74636 42.8682 1.74636C42.875 1.74636 42.8816 1.74361 42.8864 1.73872C42.8912 1.73383 42.894 1.72719 42.894 1.72027V0.888942C42.8418 0.98004 42.7979 1.07569 42.7628 1.17475V1.7181C42.766 1.73875 42.7714 1.74636 42.7778 1.74636Z" fill="url(#paint13_linear_35_167543)"/>
<path d="M42.8251 1.79961C42.8165 1.79961 42.809 1.81156 42.809 1.82569V2.47771C42.8284 2.52227 42.8488 2.56465 42.8714 2.60594V1.95392C42.8714 1.93979 42.8639 1.92784 42.8563 1.92784C42.8488 1.92784 42.8424 1.91588 42.8424 1.90067V1.82569C42.8424 1.81156 42.8348 1.79961 42.8251 1.79961Z" fill="url(#paint14_linear_35_167543)"/>
<path d="M18.9735 16.3007C19.2184 15.8475 19.3581 15.344 19.3822 14.8282L19.4026 14.4619L19.8091 7.03429L16.5056 7.07232L16.6056 5.99974L14.0903 6.00517L13.9881 7.10057L13.3612 7.10818L13.4687 5.99974L10.9534 6.00517L10.8459 7.13752L8.51881 7.1636L7.76606 6.77456L6.79823 17.8797L14.3043 17.871C15.2033 17.9128 16.1042 17.8611 16.9927 17.7166C17.3892 17.6477 17.7665 17.4938 18.0992 17.2653C18.432 17.0368 18.7125 16.739 18.9219 16.3919C18.9402 16.3615 18.9574 16.3322 18.9735 16.3007ZM10.776 15.2672H9.62537L9.84044 12.9569H10.9911L10.776 15.2672ZM11.1352 11.5191H9.93292L10.148 9.19466H11.3513L11.1352 11.5191ZM13.8677 15.2683H12.6031L12.8181 12.9579H14.0828L13.8677 15.2683ZM14.1806 11.5191H12.9106L13.1257 9.19466H14.3968L14.1806 11.5191ZM16.8325 15.2661H15.542L15.7571 12.9558H17.0475L16.8325 15.2661ZM15.8464 11.5191L16.0614 9.19466H17.3519L17.1368 11.5191H15.8464Z" fill="url(#paint15_linear_35_167543)"/>
<path d="M31.1381 7.3027H25.6214L26.8624 6.33227H23.3868C23.3868 6.33227 22.7341 8.30574 20.2683 9.9032L28.4152 9.91081C28.4152 9.91081 28.6787 11.6495 25.2698 11.7854L26.0494 10.9975H22.8846C22.8846 10.9975 22.1727 11.9082 22.105 11.9082V13.823H28.4142C28.4142 13.823 28.6292 15.591 25.3279 15.6878L26.0451 14.9629H22.8803C22.8803 14.9629 22.5104 15.4367 22.2792 15.7008L20.864 15.7062C20.3556 16.7051 19.5001 17.4791 18.4616 17.8797H28.4142C28.4142 17.8797 31.1381 17.7351 31.1381 13.9675V13.485L30.2036 13.1699L31.1381 12.0429V7.3027Z" fill="url(#paint16_linear_35_167543)"/>
<path d="M42.7671 7.3027H37.2494L38.4936 6.33227H35.0158C35.0158 6.33227 34.3631 8.30574 31.8973 9.9032L40.0432 9.91081C40.0432 9.91081 40.3077 11.6495 36.8977 11.7854L37.6774 10.9975H34.5147C34.5147 10.9975 33.8028 11.9082 33.7362 11.9082V13.823H40.0421C40.0421 13.823 40.2572 15.591 36.9558 15.6878L37.6731 14.9629H34.5147C34.5147 14.9629 34.1448 15.4367 33.9136 15.7008L32.4984 15.7062C31.99 16.7051 31.1345 17.4791 30.096 17.8797H40.0421C40.0421 17.8797 42.7671 17.7351 42.7671 13.9675V13.485L41.8326 13.1699L42.7671 12.0429V7.3027Z" fill="url(#paint17_linear_35_167543)"/>
<path d="M27.8807 20.4389L28.0065 19.9118C27.8269 19.9737 27.6484 20.0368 27.4688 20.0976C20.965 22.308 14.5773 23.5316 9.47146 23.5425H9.40586C4.49144 23.5425 1.2804 22.3612 0.593237 20.2987C0.128678 18.9044 0.825516 17.1255 2.53427 15.1911V14.5771C2.53427 14.5543 2.53427 14.5326 2.53427 14.5109C0.444836 16.7256 -0.388573 18.7751 0.168467 20.4443C0.933052 22.7383 4.21292 24 9.40909 24H9.47791C14.6321 23.9891 21.0736 22.7568 27.6183 20.5301L27.8807 20.4389Z" fill="url(#paint18_linear_35_167543)"/>
<path d="M49.1096 5.08147C48.9451 6.62894 47.7202 8.48178 45.5684 10.4324L46.0222 10.6389C48.1729 8.66761 49.3795 6.79956 49.5612 5.17384L49.1096 5.08147Z" fill="url(#paint19_linear_35_167543)"/>
<path d="M37.687 0.226049C33.0092 0.543368 27.5248 1.71158 21.9727 3.60137C20.0521 4.2534 16.8841 5.51506 15.1076 6.28011C15.2623 6.36705 15.4067 6.4717 15.5377 6.59199C17.2271 5.87259 20.2994 4.65439 22.1168 4.03497C27.7335 2.12453 33.2662 0.955231 37.9623 0.666166L37.687 0.226049Z" fill="url(#paint20_linear_35_167543)"/>
<defs>
<linearGradient id="paint0_linear_35_167543" x1="25" y1="0" x2="25" y2="24" gradientUnits="userSpaceOnUse">
<stop stop-color="white"/>
<stop offset="1" stop-color="white" stop-opacity="0"/>
</linearGradient>
<linearGradient id="paint1_linear_35_167543" x1="25" y1="0" x2="25" y2="24" gradientUnits="userSpaceOnUse">
<stop stop-color="white"/>
<stop offset="1" stop-color="white" stop-opacity="0"/>
</linearGradient>
<linearGradient id="paint2_linear_35_167543" x1="25" y1="0" x2="25" y2="24" gradientUnits="userSpaceOnUse">
<stop stop-color="white"/>
<stop offset="1" stop-color="white" stop-opacity="0"/>
</linearGradient>
<linearGradient id="paint3_linear_35_167543" x1="25" y1="0" x2="25" y2="24" gradientUnits="userSpaceOnUse">
<stop stop-color="white"/>
<stop offset="1" stop-color="white" stop-opacity="0"/>
</linearGradient>
<linearGradient id="paint4_linear_35_167543" x1="25" y1="0" x2="25" y2="24" gradientUnits="userSpaceOnUse">
<stop stop-color="white"/>
<stop offset="1" stop-color="white" stop-opacity="0"/>
</linearGradient>
<linearGradient id="paint5_linear_35_167543" x1="25" y1="0" x2="25" y2="24" gradientUnits="userSpaceOnUse">
<stop stop-color="white"/>
<stop offset="1" stop-color="white" stop-opacity="0"/>
</linearGradient>
<linearGradient id="paint6_linear_35_167543" x1="25" y1="0" x2="25" y2="24" gradientUnits="userSpaceOnUse">
<stop stop-color="white"/>
<stop offset="1" stop-color="white" stop-opacity="0"/>
</linearGradient>
<linearGradient id="paint7_linear_35_167543" x1="25" y1="0" x2="25" y2="24" gradientUnits="userSpaceOnUse">
<stop stop-color="white"/>
<stop offset="1" stop-color="white" stop-opacity="0"/>
</linearGradient>
<linearGradient id="paint8_linear_35_167543" x1="25" y1="0" x2="25" y2="24" gradientUnits="userSpaceOnUse">
<stop stop-color="white"/>
<stop offset="1" stop-color="white" stop-opacity="0"/>
</linearGradient>
<linearGradient id="paint9_linear_35_167543" x1="25" y1="0" x2="25" y2="24" gradientUnits="userSpaceOnUse">
<stop stop-color="white"/>
<stop offset="1" stop-color="white" stop-opacity="0"/>
</linearGradient>
<linearGradient id="paint10_linear_35_167543" x1="25" y1="0" x2="25" y2="24" gradientUnits="userSpaceOnUse">
<stop stop-color="white"/>
<stop offset="1" stop-color="white" stop-opacity="0"/>
</linearGradient>
<linearGradient id="paint11_linear_35_167543" x1="25" y1="0" x2="25" y2="24" gradientUnits="userSpaceOnUse">
<stop stop-color="white"/>
<stop offset="1" stop-color="white" stop-opacity="0"/>
</linearGradient>
<linearGradient id="paint12_linear_35_167543" x1="25" y1="0" x2="25" y2="24" gradientUnits="userSpaceOnUse">
<stop stop-color="white"/>
<stop offset="1" stop-color="white" stop-opacity="0"/>
</linearGradient>
<linearGradient id="paint13_linear_35_167543" x1="25" y1="0" x2="25" y2="24" gradientUnits="userSpaceOnUse">
<stop stop-color="white"/>
<stop offset="1" stop-color="white" stop-opacity="0"/>
</linearGradient>
<linearGradient id="paint14_linear_35_167543" x1="25" y1="0" x2="25" y2="24" gradientUnits="userSpaceOnUse">
<stop stop-color="white"/>
<stop offset="1" stop-color="white" stop-opacity="0"/>
</linearGradient>
<linearGradient id="paint15_linear_35_167543" x1="25" y1="0" x2="25" y2="24" gradientUnits="userSpaceOnUse">
<stop stop-color="white"/>
<stop offset="1" stop-color="white" stop-opacity="0"/>
</linearGradient>
<linearGradient id="paint16_linear_35_167543" x1="25" y1="0" x2="25" y2="24" gradientUnits="userSpaceOnUse">
<stop stop-color="white"/>
<stop offset="1" stop-color="white" stop-opacity="0"/>
</linearGradient>
<linearGradient id="paint17_linear_35_167543" x1="25" y1="0" x2="25" y2="24" gradientUnits="userSpaceOnUse">
<stop stop-color="white"/>
<stop offset="1" stop-color="white" stop-opacity="0"/>
</linearGradient>
<linearGradient id="paint18_linear_35_167543" x1="25" y1="0" x2="25" y2="24" gradientUnits="userSpaceOnUse">
<stop stop-color="white"/>
<stop offset="1" stop-color="white" stop-opacity="0"/>
</linearGradient>
<linearGradient id="paint19_linear_35_167543" x1="25" y1="0" x2="25" y2="24" gradientUnits="userSpaceOnUse">
<stop stop-color="white"/>
<stop offset="1" stop-color="white" stop-opacity="0"/>
</linearGradient>
<linearGradient id="paint20_linear_35_167543" x1="25" y1="0" x2="25" y2="24" gradientUnits="userSpaceOnUse">
<stop stop-color="white"/>
<stop offset="1" stop-color="white" stop-opacity="0"/>
</linearGradient>
</defs>
</svg>
