<svg width="68" height="32" viewBox="0 0 68 32" fill="none" xmlns="http://www.w3.org/2000/svg">
<path d="M58.0199 4.32078C58.0182 4.32897 58.0137 4.33633 58.0072 4.34162C58.0007 4.3469 57.9925 4.34979 57.9841 4.34979C57.9756 4.34979 57.9675 4.3469 57.9609 4.34162C57.9544 4.33633 57.9499 4.32897 57.9482 4.32078V3.17756L57.802 2.85734V3.42678C57.8003 3.43497 57.7958 3.44233 57.7893 3.44762C57.7828 3.4529 57.7746 3.45579 57.7662 3.45579C57.7577 3.45579 57.7496 3.4529 57.743 3.44762C57.7365 3.44233 57.732 3.43497 57.7303 3.42678V2.8472C57.7303 2.82691 57.7216 2.81097 57.7099 2.81097C57.6982 2.81097 57.6879 2.82691 57.6879 2.8472V3.42678C57.6879 3.436 57.6842 3.44484 57.6776 3.45137C57.6711 3.45789 57.6621 3.46155 57.6528 3.46155C57.6435 3.46155 57.6346 3.45789 57.628 3.45137C57.6214 3.44484 57.6177 3.436 57.6177 3.42678V2.44439L57.6002 2.40527C57.598 2.41481 57.598 2.42471 57.6002 2.43425V3.09207C57.6012 3.09733 57.6011 3.10276 57.5998 3.10798C57.5985 3.11319 57.5961 3.11805 57.5926 3.1222C57.5892 3.12636 57.5849 3.12971 57.58 3.13201C57.5751 3.13431 57.5698 3.1355 57.5643 3.1355C57.5589 3.1355 57.5536 3.13431 57.5487 3.13201C57.5438 3.12971 57.5395 3.12636 57.536 3.1222C57.5326 3.11805 57.5301 3.11319 57.5288 3.10798C57.5275 3.10276 57.5274 3.09733 57.5285 3.09207V2.43425C57.5285 2.41541 57.5285 2.39947 57.5139 2.39947C57.4993 2.39947 57.4993 2.41541 57.4993 2.43425V3.51082C57.4993 3.52004 57.4956 3.52888 57.489 3.5354C57.4824 3.54193 57.4735 3.54559 57.4642 3.54559C57.4548 3.54559 57.4459 3.54193 57.4393 3.5354C57.4328 3.52888 57.4291 3.52004 57.4291 3.51082V2.8501C57.4291 2.84049 57.4252 2.83128 57.4184 2.82448C57.4115 2.81769 57.4022 2.81387 57.3925 2.81387C57.3828 2.81387 57.3735 2.81769 57.3666 2.82448C57.3598 2.83128 57.3559 2.84049 57.3559 2.8501V3.13989C57.3559 3.14911 57.3522 3.15795 57.3457 3.16447C57.3391 3.171 57.3301 3.17466 57.3208 3.17466C57.3115 3.17466 57.3026 3.171 57.296 3.16447C57.2894 3.15795 57.2857 3.14911 57.2857 3.13989V2.43425C57.2857 2.41541 57.274 2.39947 57.2609 2.39947C57.2477 2.39947 57.2375 2.41541 57.2375 2.43425V3.51082C57.2375 3.52004 57.2338 3.52888 57.2272 3.5354C57.2206 3.54193 57.2117 3.54559 57.2024 3.54559C57.1931 3.54559 57.1841 3.54193 57.1776 3.5354C57.171 3.52888 57.1673 3.52004 57.1673 3.51082V2.66898C57.1682 2.66473 57.1682 2.66033 57.1673 2.65608C57.1663 2.65184 57.1644 2.64787 57.1616 2.64447C57.1589 2.64106 57.1554 2.63832 57.1514 2.63643C57.1475 2.63454 57.1431 2.63356 57.1387 2.63356C57.1344 2.63356 57.13 2.63454 57.1261 2.63643C57.1221 2.63832 57.1186 2.64106 57.1159 2.64447C57.1131 2.64787 57.1112 2.65184 57.1102 2.65608C57.1093 2.66033 57.1093 2.66473 57.1102 2.66898V2.92544C57.1086 2.93363 57.1041 2.94099 57.0975 2.94628C57.091 2.95157 57.0828 2.95446 57.0744 2.95446C57.066 2.95446 57.0578 2.95157 57.0513 2.94628C57.0447 2.94099 57.0402 2.93363 57.0386 2.92544V2.66898C57.039 2.66037 57.036 2.65194 57.0303 2.64546C57.0246 2.63898 57.0165 2.63494 57.0079 2.6342C56.9992 2.63494 56.9912 2.63898 56.9854 2.64546C56.9797 2.65194 56.9767 2.66037 56.9771 2.66898V3.09207C56.9773 3.09676 56.9766 3.10144 56.9749 3.10582C56.9732 3.11021 56.9707 3.11422 56.9674 3.1176C56.9641 3.12099 56.9602 3.12368 56.9558 3.12551C56.9515 3.12735 56.9468 3.1283 56.942 3.12829C56.9326 3.12792 56.9237 3.12394 56.9171 3.11718C56.9106 3.11043 56.9069 3.10143 56.9069 3.09207V2.57624C56.9069 2.55596 56.8967 2.54002 56.8835 2.54002C56.8704 2.54002 56.8616 2.55596 56.8616 2.57624V2.59798C56.8627 2.60324 56.8626 2.60867 56.8613 2.61388C56.86 2.6191 56.8575 2.62396 56.8541 2.62811C56.8507 2.63227 56.8463 2.63562 56.8414 2.63792C56.8365 2.64022 56.8312 2.64141 56.8258 2.64141C56.8204 2.64141 56.815 2.64022 56.8101 2.63792C56.8052 2.63562 56.8009 2.63227 56.7975 2.62811C56.794 2.62396 56.7916 2.6191 56.7903 2.61388C56.789 2.60867 56.7889 2.60324 56.7899 2.59798V2.53423C56.7899 2.51539 56.7782 2.49945 56.7651 2.49945C56.7519 2.49945 56.7388 2.51539 56.7388 2.53423V2.7762L56.7987 2.92834H56.7388V3.09207C56.7388 3.10129 56.7351 3.11014 56.7285 3.11666C56.7219 3.12318 56.713 3.12684 56.7037 3.12684C56.6943 3.12684 56.6854 3.12318 56.6788 3.11666C56.6723 3.11014 56.6686 3.10129 56.6686 3.09207V2.92834H56.6144V3.02977C56.6155 3.03503 56.6154 3.04046 56.6141 3.04567C56.6128 3.05088 56.6104 3.05574 56.6069 3.0599C56.6035 3.06405 56.5992 3.0674 56.5943 3.0697C56.5894 3.072 56.584 3.0732 56.5786 3.0732C56.5732 3.0732 56.5678 3.072 56.5629 3.0697C56.5581 3.0674 56.5537 3.06405 56.5503 3.0599C56.5469 3.05574 56.5444 3.05088 56.5431 3.04567C56.5418 3.04046 56.5417 3.03503 56.5428 3.02977V2.92834H56.4901V3.40939C56.4912 3.41465 56.4911 3.42008 56.4898 3.42529C56.4885 3.43051 56.486 3.43537 56.4826 3.43952C56.4792 3.44368 56.4749 3.44703 56.47 3.44933C56.4651 3.45163 56.4597 3.45282 56.4543 3.45282C56.4489 3.45282 56.4435 3.45163 56.4386 3.44933C56.4337 3.44703 56.4294 3.44368 56.426 3.43952C56.4226 3.43537 56.4201 3.43051 56.4188 3.42529C56.4175 3.42008 56.4174 3.41465 56.4185 3.40939V2.92834H56.2123V3.4601C56.2106 3.46829 56.2061 3.47565 56.1996 3.48094C56.193 3.48623 56.1849 3.48912 56.1764 3.48912C56.168 3.48912 56.1598 3.48623 56.1533 3.48094C56.1468 3.47565 56.1423 3.46829 56.1406 3.4601V2.92834H55.9841V3.09207C55.9852 3.09733 55.9851 3.10276 55.9838 3.10798C55.9825 3.11319 55.98 3.11805 55.9766 3.1222C55.9732 3.12636 55.9688 3.12971 55.9639 3.13201C55.959 3.13431 55.9537 3.1355 55.9483 3.1355C55.9429 3.1355 55.9375 3.13431 55.9326 3.13201C55.9277 3.12971 55.9234 3.12636 55.92 3.1222C55.9165 3.11805 55.9141 3.11319 55.9128 3.10798C55.9115 3.10276 55.9114 3.09733 55.9124 3.09207V2.92834H55.4737L55.6624 2.44584H55.6024C55.5819 2.44584 55.5658 2.45598 55.5658 2.46757C55.5656 2.47081 55.5648 2.47398 55.5634 2.4769C55.562 2.47982 55.56 2.48243 55.5575 2.48458C55.5551 2.48673 55.5522 2.48839 55.5491 2.48945C55.546 2.49051 55.5428 2.49095 55.5395 2.49076C55.5326 2.49072 55.526 2.49322 55.5208 2.49777C55.5157 2.50232 55.5124 2.5086 55.5117 2.51539C55.5117 2.52988 55.4956 2.54002 55.4766 2.54002C55.4576 2.54002 55.4401 2.52843 55.4401 2.51394C55.439 2.5065 55.435 2.49978 55.429 2.49518C55.423 2.49058 55.4154 2.48848 55.4079 2.48931C55.3889 2.48931 55.3742 2.48931 55.3742 2.5038C55.3742 2.51829 55.3611 2.51974 55.3435 2.51974C55.3355 2.52009 55.3279 2.52341 55.3222 2.52904C55.3165 2.53467 55.3132 2.54221 55.3128 2.55016C55.3121 2.55875 55.308 2.56671 55.3015 2.57238C55.2949 2.57806 55.2864 2.581 55.2777 2.58059H55.1987C55.1943 2.58099 55.1899 2.58052 55.1856 2.5792C55.1814 2.57788 55.1775 2.57575 55.1741 2.57292C55.1707 2.57009 55.1679 2.56662 55.1658 2.56272C55.1638 2.55881 55.1625 2.55455 55.1622 2.55016C55.1622 2.53423 55.1622 2.51974 55.149 2.51974C55.1359 2.51974 55.1359 2.5038 55.1359 2.48496V2.43425C55.1355 2.42489 55.1315 2.41605 55.1246 2.40957C55.1178 2.40308 55.1087 2.39947 55.0993 2.39947H54.6605L53.6777 4.62216H54.817L55.1476 3.77597H57.1219L57.4525 4.62216H58.5918L58.0199 3.3326V4.32078Z" fill="#D42A29"/>
<path d="M57.3036 2.32847C57.3184 2.32847 57.3303 2.31254 57.3303 2.2937V1.78802L57.2784 1.6721V2.2937C57.2784 2.31833 57.2888 2.32847 57.3036 2.32847Z" fill="#D42A29"/>
<path d="M55.2192 2.31833C55.2192 2.31833 55.2353 2.30674 55.2543 2.30674C55.2733 2.30674 55.2909 2.30674 55.2909 2.31833C55.2909 2.32992 55.307 2.33137 55.326 2.33137H55.3479C55.3562 2.3322 55.3645 2.32978 55.3711 2.32465C55.3776 2.31951 55.3819 2.31205 55.383 2.30384C55.3841 2.29525 55.3885 2.28742 55.3954 2.28202C55.4022 2.27661 55.4109 2.27404 55.4196 2.27486C55.4238 2.27446 55.4281 2.2749 55.4321 2.27614C55.4362 2.27739 55.44 2.27941 55.4432 2.28211C55.4465 2.2848 55.4492 2.28811 55.4511 2.29184C55.4531 2.29557 55.4543 2.29965 55.4547 2.30384C55.4558 2.31205 55.4601 2.31951 55.4666 2.32465C55.4732 2.32978 55.4815 2.3322 55.4898 2.33137H55.715L56.1377 1.24901L56.2751 1.59965C56.2788 1.60299 56.2817 1.60702 56.2837 1.6115C56.2857 1.61599 56.2868 1.62083 56.2868 1.62574L56.3878 1.8851C56.3952 1.88701 56.4019 1.89131 56.4066 1.89734C56.4114 1.90336 56.414 1.91077 56.4141 1.91842V1.9532L56.4711 2.09809V1.49968C56.4728 1.49149 56.4773 1.48413 56.4838 1.47884C56.4903 1.47355 56.4985 1.47066 56.507 1.47066C56.5154 1.47066 56.5236 1.47355 56.5301 1.47884C56.5366 1.48413 56.5411 1.49149 56.5428 1.49968V2.28211L56.5603 2.32847C56.5676 2.32847 56.575 2.31109 56.575 2.2937V2.02854C56.575 2.01932 56.5787 2.01047 56.5852 2.00395C56.5918 1.99743 56.6007 1.99377 56.6101 1.99377C56.6194 1.99377 56.6283 1.99743 56.6349 2.00395C56.6415 2.01047 56.6452 2.01932 56.6452 2.02854V2.29225C56.6452 2.30147 56.6489 2.31032 56.6554 2.31684C56.662 2.32336 56.6709 2.32702 56.6803 2.32702C56.6848 2.32703 56.6893 2.32612 56.6935 2.32436C56.6977 2.32259 56.7014 2.32001 56.7046 2.31676C56.7077 2.31351 56.7102 2.30966 56.7118 2.30545C56.7134 2.30124 56.7141 2.29675 56.7139 2.29225V1.73875C56.7156 1.73056 56.7201 1.7232 56.7266 1.71791C56.7331 1.71263 56.7413 1.70974 56.7497 1.70974C56.7582 1.70974 56.7663 1.71263 56.7729 1.71791C56.7794 1.7232 56.7839 1.73056 56.7856 1.73875V2.14446C56.7851 2.15306 56.7881 2.16149 56.7938 2.16798C56.7996 2.17446 56.8076 2.17849 56.8163 2.17923C56.8251 2.18032 56.8331 2.18465 56.8388 2.19137C56.8445 2.19809 56.8474 2.20669 56.847 2.21546V2.2937C56.847 2.30292 56.8507 2.31177 56.8573 2.31829C56.8638 2.32481 56.8728 2.32847 56.8821 2.32847H56.9274C56.9367 2.32847 56.9457 2.32481 56.9522 2.31829C56.9588 2.31177 56.9625 2.30292 56.9625 2.2937V1.6808C56.9625 1.6761 56.9635 1.67146 56.9653 1.66714C56.9672 1.66283 56.9699 1.65893 56.9733 1.65568C56.9767 1.65243 56.9808 1.6499 56.9852 1.64824C56.9896 1.64658 56.9944 1.64582 56.9991 1.64602C57.0084 1.64602 57.0173 1.64968 57.0239 1.65621C57.0305 1.66273 57.0342 1.67157 57.0342 1.6808V2.2937C57.0332 2.29794 57.0332 2.30235 57.0342 2.30659C57.0352 2.31084 57.0371 2.31481 57.0398 2.31821C57.0426 2.32161 57.0461 2.32436 57.05 2.32625C57.054 2.32814 57.0583 2.32912 57.0627 2.32912C57.0671 2.32912 57.0714 2.32814 57.0754 2.32625C57.0793 2.32436 57.0828 2.32161 57.0856 2.31821C57.0883 2.31481 57.0902 2.31084 57.0912 2.30659C57.0922 2.30235 57.0922 2.29794 57.0912 2.2937V2.04883C57.0929 2.04064 57.0974 2.03328 57.1039 2.02799C57.1104 2.0227 57.1186 2.01981 57.1271 2.01981C57.1355 2.01981 57.1437 2.0227 57.1502 2.02799C57.1567 2.03328 57.1612 2.04064 57.1629 2.04883V2.2937C57.1629 2.31254 57.1731 2.32847 57.1863 2.32847C57.1994 2.32847 57.2097 2.31254 57.2097 2.2937V1.54894C57.2097 1.5411 57.2122 1.53348 57.217 1.52721L56.5808 0.105791H55.6901L54.7 2.32847H55.1841C55.2031 2.32847 55.2192 2.31833 55.2192 2.31833Z" fill="#D42A29"/>
<path d="M57.4364 2.32847H57.5709L57.4013 1.9474V2.2937C57.4013 2.30292 57.405 2.31177 57.4115 2.31829C57.4181 2.32481 57.4271 2.32847 57.4364 2.32847Z" fill="#D42A29"/>
<path d="M67.0201 2.39947H66.9762V4.62216H68V2.39947H67.1678C67.1585 2.39947 67.1496 2.40314 67.143 2.40966C67.1364 2.41618 67.1327 2.42502 67.1327 2.43425V2.52553C67.1311 2.53372 67.1266 2.54108 67.12 2.54637C67.1135 2.55166 67.1053 2.55455 67.0969 2.55455C67.0885 2.55455 67.0803 2.55166 67.0738 2.54637C67.0672 2.54108 67.0627 2.53372 67.0611 2.52553V2.43425C67.0611 2.42915 67.0601 2.4241 67.058 2.41945C67.0559 2.4148 67.0527 2.41068 67.0488 2.40736C67.0449 2.40404 67.0403 2.40161 67.0354 2.40025C67.0304 2.39889 67.0252 2.39862 67.0201 2.39947Z" fill="#D42A29"/>
<path d="M66.4263 2.39947C66.417 2.39947 66.4081 2.40314 66.4015 2.40966C66.395 2.41618 66.3913 2.42503 66.3913 2.43425V2.7081C66.3923 2.71336 66.3922 2.71879 66.3909 2.724C66.3896 2.72922 66.3872 2.73408 66.3837 2.73823C66.3803 2.74239 66.376 2.74574 66.3711 2.74804C66.3662 2.75034 66.3608 2.75153 66.3554 2.75153C66.35 2.75153 66.3447 2.75034 66.3398 2.74804C66.3349 2.74574 66.3305 2.74239 66.3271 2.73823C66.3237 2.73408 66.3212 2.72922 66.3199 2.724C66.3186 2.71879 66.3185 2.71336 66.3196 2.7081V2.43425C66.3196 2.41541 66.3094 2.39947 66.2947 2.39947C66.2801 2.39947 66.2699 2.41541 66.2699 2.43425V2.64869C66.2699 2.65792 66.2662 2.66676 66.2596 2.67328C66.253 2.6798 66.2441 2.68347 66.2348 2.68347C66.2255 2.68347 66.2165 2.6798 66.2099 2.67328C66.2034 2.66676 66.1997 2.65792 66.1997 2.64869V2.43425C66.1997 2.42656 66.1966 2.41919 66.1911 2.41376C66.1856 2.40832 66.1782 2.40527 66.1704 2.40527C66.1627 2.40527 66.1552 2.40832 66.1497 2.41376C66.1442 2.41919 66.1412 2.42656 66.1412 2.43425V2.86893C66.1412 2.87815 66.1375 2.887 66.1309 2.89352C66.1243 2.90004 66.1154 2.90371 66.1061 2.90371C66.0968 2.90371 66.0878 2.90004 66.0812 2.89352C66.0747 2.887 66.071 2.87815 66.071 2.86893V2.43425C66.0706 2.42489 66.0666 2.41605 66.0598 2.40957C66.0529 2.40308 66.0438 2.39947 66.0344 2.39947C66.025 2.39947 66.0159 2.40308 66.0091 2.40957C66.0022 2.41605 65.9982 2.42489 65.9978 2.43425V2.86893C65.9978 2.87815 65.9941 2.887 65.9876 2.89352C65.981 2.90004 65.9721 2.90371 65.9627 2.90371C65.9534 2.90371 65.9445 2.90004 65.9379 2.89352C65.9313 2.887 65.9276 2.87815 65.9276 2.86893V2.43425C65.9276 2.41541 65.9174 2.39947 65.9072 2.39947C65.8969 2.39947 65.8867 2.41541 65.8867 2.43425V2.60812C65.8878 2.61338 65.8877 2.61882 65.8864 2.62403C65.885 2.62924 65.8826 2.6341 65.8792 2.63825C65.8757 2.64241 65.8714 2.64576 65.8665 2.64806C65.8616 2.65036 65.8563 2.65155 65.8509 2.65155C65.8454 2.65155 65.8401 2.65036 65.8352 2.64806C65.8303 2.64576 65.826 2.64241 65.8225 2.63825C65.8191 2.6341 65.8167 2.62924 65.8154 2.62403C65.8141 2.61882 65.814 2.61338 65.815 2.60812V2.43425C65.8159 2.42601 65.8134 2.41778 65.8082 2.41129C65.8031 2.4048 65.7955 2.40056 65.7872 2.39947C65.783 2.39984 65.7789 2.40103 65.7751 2.40298C65.7714 2.40492 65.768 2.40759 65.7653 2.41082C65.7626 2.41406 65.7605 2.41779 65.7593 2.42181C65.758 2.42583 65.7576 2.43006 65.758 2.43425V2.67188C65.7563 2.68006 65.7518 2.68743 65.7453 2.69271C65.7388 2.698 65.7306 2.70089 65.7222 2.70089C65.7137 2.70089 65.7056 2.698 65.699 2.69271C65.6925 2.68743 65.688 2.68006 65.6863 2.67188V2.44729L65.6147 2.66028V2.8414C65.6147 2.85062 65.611 2.85947 65.6044 2.86599C65.5978 2.87251 65.5889 2.87618 65.5796 2.87618C65.5732 2.87626 65.5669 2.87453 65.5614 2.87119C65.556 2.86785 65.5516 2.86305 65.5488 2.85734L65.4026 3.30217L65.0999 2.39947H65.075C65.0656 2.39947 65.0565 2.40308 65.0497 2.40957C65.0428 2.41605 65.0388 2.42489 65.0384 2.43425V2.72404C65.0384 2.73326 65.0347 2.74211 65.0282 2.74863C65.0216 2.75515 65.0127 2.75881 65.0033 2.75881C64.994 2.75881 64.9851 2.75515 64.9785 2.74863C64.9719 2.74211 64.9682 2.73326 64.9682 2.72404V2.43425C64.9679 2.42489 64.9638 2.41605 64.957 2.40957C64.9502 2.40308 64.9411 2.39947 64.9317 2.39947C64.9224 2.39947 64.9134 2.40314 64.9069 2.40966C64.9003 2.41618 64.8966 2.42503 64.8966 2.43425V2.93124C64.8949 2.93943 64.8904 2.94679 64.8839 2.95208C64.8774 2.95736 64.8692 2.96025 64.8607 2.96025C64.8523 2.96025 64.8441 2.95736 64.8376 2.95208C64.8311 2.94679 64.8266 2.93943 64.8249 2.93124V2.81532C64.8249 2.79648 64.8147 2.78055 64.8015 2.78055C64.7884 2.78055 64.7796 2.76461 64.7796 2.74432V2.43425C64.7796 2.41541 64.7708 2.39947 64.7606 2.39947C64.7503 2.39947 64.743 2.41541 64.743 2.43425V2.64869C64.7413 2.65688 64.7369 2.66424 64.7303 2.66953C64.7238 2.67482 64.7156 2.67771 64.7072 2.67771C64.6987 2.67771 64.6906 2.67482 64.684 2.66953C64.6775 2.66424 64.673 2.65688 64.6714 2.64869V2.43425C64.6714 2.41541 64.6626 2.39947 64.6538 2.39947C64.645 2.39947 64.6363 2.41541 64.6363 2.43425V2.75302C64.6373 2.75828 64.6372 2.76371 64.6359 2.76892C64.6346 2.77413 64.6322 2.77899 64.6287 2.78315C64.6253 2.78731 64.621 2.79065 64.6161 2.79296C64.6112 2.79526 64.6058 2.79645 64.6004 2.79645C64.595 2.79645 64.5897 2.79526 64.5848 2.79296C64.5799 2.79065 64.5755 2.78731 64.5721 2.78315C64.5687 2.77899 64.5662 2.77413 64.5649 2.76892C64.5636 2.76371 64.5635 2.75828 64.5646 2.75302V2.43425C64.5646 2.41541 64.5646 2.39947 64.5514 2.39947C64.5383 2.39947 64.5368 2.41541 64.5368 2.43425V2.64869C64.5368 2.66753 64.528 2.68347 64.5149 2.68347C64.5017 2.68347 64.4929 2.69941 64.4929 2.71824V3.00803C64.4931 3.01272 64.4924 3.0174 64.4907 3.02178C64.489 3.02617 64.4865 3.03018 64.4832 3.03356C64.4799 3.03695 64.476 3.03964 64.4716 3.04148C64.4672 3.04331 64.4626 3.04426 64.4578 3.04425C64.4484 3.04388 64.4395 3.0399 64.4329 3.03315C64.4264 3.02639 64.4227 3.01739 64.4227 3.00803V2.42845C64.4227 2.40962 64.414 2.39368 64.4052 2.39368C64.3964 2.39368 64.3876 2.40962 64.3876 2.42845V2.6429C64.386 2.65109 64.3815 2.65845 64.3749 2.66374C64.3684 2.66902 64.3602 2.67191 64.3518 2.67191C64.3434 2.67191 64.3352 2.66902 64.3287 2.66374C64.3221 2.65845 64.3176 2.65109 64.316 2.6429V2.43425C64.316 2.41541 64.3043 2.39947 64.2896 2.39947C64.275 2.39947 64.2633 2.41541 64.2633 2.43425V2.73998L64.9492 4.62361H65.8399L66.6501 2.40092L66.4263 2.39947Z" fill="#D42A29"/>
<path d="M63.7704 2.43425V2.55161C63.7704 2.57045 63.7602 2.58639 63.7471 2.58639C63.7339 2.58639 63.7237 2.60088 63.7237 2.61826C63.7229 2.62723 63.7187 2.63556 63.7119 2.64151C63.705 2.64745 63.6962 2.65055 63.6871 2.65014C63.6778 2.65014 63.6689 2.64648 63.6623 2.63996C63.6557 2.63343 63.652 2.62459 63.652 2.61537V2.43425C63.652 2.41541 63.6432 2.39947 63.633 2.39947C63.6227 2.39947 63.6125 2.41541 63.6125 2.43425V3.03121C63.6125 3.04044 63.6088 3.04928 63.6022 3.0558C63.5956 3.06232 63.5867 3.06599 63.5774 3.06599C63.5681 3.06599 63.5592 3.06232 63.5526 3.0558C63.546 3.04928 63.5423 3.04044 63.5423 3.03121V2.43425C63.5423 2.41541 63.5321 2.39947 63.5218 2.39947C63.5116 2.39947 63.5013 2.41541 63.5013 2.43425V3.60065C63.4997 3.60884 63.4952 3.6162 63.4887 3.62149C63.4821 3.62678 63.474 3.62966 63.4655 3.62966C63.4571 3.62966 63.4489 3.62678 63.4424 3.62149C63.4358 3.6162 63.4314 3.60884 63.4297 3.60065V2.44149C63.4297 2.42266 63.4194 2.40672 63.4077 2.40672C63.396 2.40672 63.3873 2.42266 63.3873 2.44149V2.75302C63.3856 2.7612 63.3811 2.76857 63.3746 2.77385C63.3681 2.77914 63.3599 2.78203 63.3514 2.78203C63.343 2.78203 63.3348 2.77914 63.3283 2.77385C63.3218 2.76857 63.3173 2.7612 63.3156 2.75302V2.43425C63.3156 2.41541 63.3156 2.39947 63.301 2.39947C63.2864 2.39947 63.2849 2.41541 63.2849 2.43425V3.21668C63.2849 3.2259 63.2812 3.23475 63.2746 3.24127C63.268 3.24779 63.2591 3.25145 63.2498 3.25145C63.2405 3.25145 63.2316 3.24779 63.225 3.24127C63.2184 3.23475 63.2147 3.2259 63.2147 3.21668V2.43425C63.2143 2.42489 63.2103 2.41605 63.2035 2.40957C63.1967 2.40308 63.1876 2.39946 63.1781 2.39947C63.1687 2.39946 63.1596 2.40308 63.1528 2.40957C63.146 2.41605 63.142 2.42489 63.1416 2.43425V3.60065C63.1416 3.60987 63.1379 3.61872 63.1313 3.62524C63.1247 3.63176 63.1158 3.63542 63.1065 3.63542C63.0972 3.63542 63.0882 3.63176 63.0817 3.62524C63.0751 3.61872 63.0714 3.60987 63.0714 3.60065V2.44149C63.0718 2.43289 63.0688 2.42446 63.0631 2.41797C63.0574 2.41149 63.0493 2.40746 63.0407 2.40672C63.032 2.40746 63.024 2.41149 63.0182 2.41797C63.0125 2.42446 63.0095 2.43289 63.01 2.44149V2.68057C63.0083 2.68876 63.0038 2.69612 62.9973 2.70141C62.9907 2.70669 62.9826 2.70958 62.9741 2.70958C62.9657 2.70958 62.9575 2.70669 62.951 2.70141C62.9445 2.69612 62.94 2.68876 62.9383 2.68057V2.43425C62.9383 2.42541 62.9347 2.41693 62.9284 2.41068C62.9221 2.40443 62.9136 2.40092 62.9047 2.40092C62.8957 2.40092 62.8872 2.40443 62.8809 2.41068C62.8746 2.41693 62.871 2.42541 62.871 2.43425V2.75302C62.8693 2.7612 62.8649 2.76857 62.8583 2.77385C62.8518 2.77914 62.8436 2.78203 62.8352 2.78203C62.8268 2.78203 62.8186 2.77914 62.812 2.77385C62.8055 2.76857 62.801 2.7612 62.7994 2.75302V4.62216H63.8143V2.39947C63.809 2.39812 63.8035 2.398 63.7982 2.39913C63.7928 2.40026 63.7879 2.40261 63.7836 2.40598C63.7793 2.40936 63.7759 2.41367 63.7737 2.41858C63.7714 2.42348 63.7703 2.42885 63.7704 2.43425Z" fill="#D42A29"/>
<path d="M64.2648 2.06766C64.2648 2.05844 64.2685 2.0496 64.2751 2.04307C64.2816 2.03655 64.2906 2.03289 64.2999 2.03289C64.3092 2.03289 64.3181 2.03655 64.3247 2.04307C64.3313 2.0496 64.335 2.05844 64.335 2.06766V2.2937C64.335 2.31254 64.3423 2.32847 64.3511 2.32847C64.3598 2.32847 64.3672 2.31254 64.3672 2.2937V2.13866C64.367 2.13398 64.3677 2.1293 64.3694 2.12491C64.3711 2.12052 64.3736 2.11652 64.3769 2.11313C64.3802 2.10975 64.3841 2.10706 64.3885 2.10522C64.3928 2.10338 64.3975 2.10244 64.4023 2.10244C64.4117 2.10281 64.4206 2.10679 64.4272 2.11355C64.4337 2.1203 64.4374 2.1293 64.4374 2.13866V2.2937C64.4365 2.30194 64.439 2.31017 64.4441 2.31666C64.4493 2.32315 64.4569 2.32739 64.4651 2.32847C64.4734 2.32739 64.481 2.32315 64.4861 2.31666C64.4913 2.31017 64.4938 2.30194 64.4929 2.2937V1.88365C64.4946 1.87546 64.4991 1.8681 64.5056 1.86281C64.5122 1.85752 64.5203 1.85463 64.5288 1.85463C64.5372 1.85463 64.5454 1.85752 64.5519 1.86281C64.5584 1.8681 64.5629 1.87546 64.5646 1.88365V2.29805C64.5646 2.30573 64.5677 2.3131 64.5732 2.31854C64.5786 2.32397 64.5861 2.32703 64.5938 2.32703C64.6016 2.32703 64.609 2.32397 64.6145 2.31854C64.62 2.3131 64.6231 2.30573 64.6231 2.29805V2.10679C64.6231 2.09756 64.6268 2.08872 64.6334 2.0822C64.64 2.07568 64.6489 2.07201 64.6582 2.07201C64.6675 2.07201 64.6764 2.07568 64.683 2.0822C64.6896 2.08872 64.6933 2.09756 64.6933 2.10679V2.2937C64.6933 2.31254 64.7035 2.32847 64.7152 2.32847C64.7269 2.32847 64.7372 2.31254 64.7372 2.2937V2.25313C64.7388 2.24494 64.7433 2.23758 64.7499 2.23229C64.7564 2.227 64.7646 2.22411 64.773 2.22411C64.7814 2.22411 64.7896 2.227 64.7961 2.23229C64.8027 2.23758 64.8072 2.24494 64.8088 2.25313V2.2937C64.8088 2.31254 64.8191 2.32847 64.8322 2.32847C64.8454 2.32847 64.8556 2.31254 64.8556 2.2937V2.10679C64.8556 2.08795 64.8629 2.07201 64.8732 2.07201C64.8834 2.07201 64.8907 2.05607 64.8907 2.03579V1.8083L64.3174 0.105791H62.795V2.32847C62.8043 2.32847 62.8132 2.32481 62.8198 2.31829C62.8264 2.31177 62.8301 2.30292 62.8301 2.2937V2.27341C62.8301 2.25458 62.8403 2.23864 62.8535 2.23864C62.8666 2.23864 62.8783 2.2227 62.8783 2.20242V2.05752C62.8781 2.05283 62.8789 2.04816 62.8806 2.04377C62.8822 2.03938 62.8848 2.03537 62.8881 2.03199C62.8914 2.02861 62.8953 2.02591 62.8996 2.02408C62.904 2.02224 62.9087 2.02129 62.9134 2.0213C62.9229 2.02167 62.9318 2.02565 62.9383 2.03241C62.9449 2.03916 62.9485 2.04816 62.9485 2.05752V2.29515C62.9485 2.31399 62.9588 2.32992 62.9719 2.32992C62.9851 2.32992 62.9953 2.31399 62.9953 2.29515V2.21546C62.997 2.20727 63.0015 2.19991 63.008 2.19462C63.0145 2.18933 63.0227 2.18644 63.0312 2.18644C63.0396 2.18644 63.0478 2.18933 63.0543 2.19462C63.0608 2.19991 63.0653 2.20727 63.067 2.21546V2.29515C63.067 2.30437 63.0707 2.31322 63.0773 2.31974C63.0838 2.32626 63.0928 2.32992 63.1021 2.32992C63.1114 2.32992 63.1203 2.32626 63.1269 2.31974C63.1335 2.31322 63.1372 2.30437 63.1372 2.29515V1.51996C63.1389 1.51177 63.1433 1.50441 63.1499 1.49912C63.1564 1.49384 63.1646 1.49095 63.173 1.49095C63.1815 1.49095 63.1896 1.49384 63.1962 1.49912C63.2027 1.50441 63.2072 1.51177 63.2088 1.51996V2.2937C63.2088 2.31254 63.2191 2.32847 63.2308 2.32847C63.2425 2.32847 63.2527 2.31254 63.2527 2.2937V1.96624C63.2544 1.95805 63.2589 1.95069 63.2654 1.9454C63.272 1.94011 63.2801 1.93722 63.2886 1.93722C63.297 1.93722 63.3052 1.94011 63.3117 1.9454C63.3182 1.95069 63.3227 1.95805 63.3244 1.96624V2.14446C63.3244 2.16329 63.3244 2.17923 63.339 2.17923C63.3536 2.17923 63.3522 2.16329 63.3522 2.14446V2.05607C63.3511 2.05081 63.3512 2.04538 63.3525 2.04017C63.3538 2.03496 63.3563 2.0301 63.3597 2.02594C63.3631 2.02178 63.3674 2.01843 63.3723 2.01613C63.3772 2.01383 63.3826 2.01264 63.388 2.01264C63.3934 2.01264 63.3988 2.01383 63.4037 2.01613C63.4086 2.01843 63.4129 2.02178 63.4163 2.02594C63.4197 2.0301 63.4222 2.03496 63.4235 2.04017C63.4248 2.04538 63.4249 2.05081 63.4238 2.05607V2.2937C63.4238 2.31254 63.4355 2.32847 63.4502 2.32847C63.4648 2.32847 63.4765 2.31254 63.4765 2.2937V1.51996C63.4782 1.51177 63.4827 1.50441 63.4892 1.49912C63.4957 1.49384 63.5039 1.49095 63.5123 1.49095C63.5208 1.49095 63.5289 1.49384 63.5355 1.49912C63.542 1.50441 63.5465 1.51177 63.5481 1.51996V2.14446C63.5481 2.16329 63.5569 2.17923 63.5672 2.17923C63.5774 2.17923 63.5876 2.16329 63.5876 2.14446V1.90683C63.5866 1.90157 63.5867 1.89614 63.588 1.89093C63.5893 1.88571 63.5917 1.88086 63.5952 1.8767C63.5986 1.87254 63.6029 1.86919 63.6078 1.86689C63.6127 1.86459 63.6181 1.8634 63.6235 1.8634C63.6289 1.8634 63.6342 1.86459 63.6391 1.86689C63.644 1.86919 63.6483 1.87254 63.6518 1.8767C63.6552 1.88086 63.6577 1.88571 63.659 1.89093C63.6603 1.89614 63.6604 1.90157 63.6593 1.90683V2.14446C63.6593 2.16329 63.6666 2.17923 63.6769 2.17923C63.6871 2.17923 63.6929 2.16329 63.6929 2.14446V2.05607C63.6919 2.05081 63.692 2.04538 63.6933 2.04017C63.6946 2.03496 63.697 2.0301 63.7005 2.02594C63.7039 2.02178 63.7082 2.01843 63.7131 2.01613C63.718 2.01383 63.7234 2.01264 63.7288 2.01264C63.7342 2.01264 63.7395 2.01383 63.7444 2.01613C63.7493 2.01843 63.7537 2.02178 63.7571 2.02594C63.7605 2.0301 63.763 2.03496 63.7643 2.04017C63.7656 2.04538 63.7657 2.05081 63.7646 2.05607V2.2937C63.7646 2.30292 63.7683 2.31177 63.7749 2.31829C63.7815 2.32481 63.7904 2.32847 63.7997 2.32847V1.49678L64.1024 2.32847H64.1097C64.1192 2.32848 64.1283 2.32487 64.1351 2.31838C64.1419 2.3119 64.1459 2.30305 64.1463 2.2937V1.77498C64.1463 1.76575 64.15 1.75691 64.1566 1.75039C64.1632 1.74387 64.1721 1.7402 64.1814 1.7402C64.1907 1.7402 64.1997 1.74387 64.2062 1.75039C64.2128 1.75691 64.2165 1.76575 64.2165 1.77498V2.2937C64.2165 2.31254 64.2253 2.32847 64.2355 2.32847C64.2458 2.32847 64.2545 2.31254 64.2545 2.2937L64.2648 2.06766Z" fill="#D42A29"/>
<path d="M65.0223 2.32847H65.0662L64.9858 2.08795C64.9866 2.0942 64.9866 2.10053 64.9858 2.10679V2.2937C64.9858 2.29839 64.9867 2.30303 64.9886 2.30735C64.9904 2.31167 64.9932 2.31557 64.9966 2.31882C65 2.32206 65.004 2.3246 65.0085 2.32626C65.0129 2.32792 65.0176 2.32867 65.0223 2.32847Z" fill="#D42A29"/>
<path d="M65.7653 2.2937V2.28501C65.767 2.27682 65.7715 2.26945 65.778 2.26417C65.7845 2.25888 65.7927 2.25599 65.8011 2.25599C65.8096 2.25599 65.8177 2.25888 65.8243 2.26417C65.8308 2.26945 65.8353 2.27682 65.837 2.28501V2.2937C65.837 2.30292 65.8407 2.31177 65.8472 2.31829C65.8538 2.32481 65.8628 2.32847 65.8721 2.32847H65.9379C65.9473 2.32848 65.9564 2.32486 65.9632 2.31838C65.97 2.3119 65.9741 2.30305 65.9744 2.2937V2.20386C65.9744 2.18503 65.9744 2.16909 65.9891 2.16909C66.0037 2.16909 66.0037 2.15315 66.0037 2.13432V1.88365C66.0054 1.87546 66.0098 1.8681 66.0164 1.86281C66.0229 1.85752 66.0311 1.85463 66.0395 1.85463C66.0479 1.85463 66.0561 1.85752 66.0627 1.86281C66.0692 1.8681 66.0737 1.87546 66.0753 1.88365V2.13866C66.0753 2.1575 66.0827 2.17344 66.0914 2.17344C66.1002 2.17344 66.1061 2.18938 66.1061 2.20821V2.29805C66.1051 2.30229 66.1051 2.3067 66.1061 2.31094C66.107 2.31518 66.109 2.31915 66.1117 2.32256C66.1145 2.32596 66.1179 2.32871 66.1219 2.3306C66.1258 2.33248 66.1302 2.33346 66.1346 2.33346C66.139 2.33346 66.1433 2.33248 66.1473 2.3306C66.1512 2.32871 66.1547 2.32596 66.1574 2.32256C66.1602 2.31915 66.1621 2.31518 66.1631 2.31094C66.1641 2.3067 66.1641 2.30229 66.1631 2.29805V2.24009C66.1648 2.2319 66.1693 2.22454 66.1758 2.21925C66.1823 2.21396 66.1905 2.21107 66.1989 2.21107C66.2074 2.21107 66.2155 2.21396 66.2221 2.21925C66.2286 2.22454 66.2331 2.2319 66.2348 2.24009V2.29805C66.2348 2.31688 66.2348 2.33282 66.2479 2.33282L66.2525 2.33252L66.2566 2.33048L66.2597 2.32702L66.2611 2.32268C66.2611 2.32268 66.2772 2.31109 66.2962 2.31109C66.3152 2.31109 66.3313 2.31109 66.3313 2.32268C66.3313 2.33427 66.3386 2.33282 66.3474 2.33282C66.3561 2.33282 66.362 2.31688 66.362 2.29805V2.24009C66.362 2.22125 66.3737 2.20531 66.3883 2.20531C66.4029 2.20531 66.4146 2.18938 66.4146 2.17054V2.09664C66.4146 2.09208 66.4156 2.08755 66.4173 2.08333C66.4191 2.07912 66.4217 2.07528 66.4249 2.07205C66.4282 2.06882 66.4321 2.06626 66.4363 2.06451C66.4406 2.06277 66.4451 2.06187 66.4497 2.06187C66.4591 2.06187 66.468 2.06553 66.4746 2.07205C66.4812 2.07857 66.4848 2.08742 66.4848 2.09664V2.29805C66.4852 2.3074 66.4892 2.31625 66.4961 2.32273C66.5029 2.32921 66.512 2.33283 66.5214 2.33282H66.6837L66.9762 1.49678V2.26762C66.9853 2.26721 66.9942 2.27031 67.001 2.27625C67.0078 2.2822 67.0121 2.29053 67.0128 2.29949C67.0136 2.30808 67.0176 2.31604 67.0242 2.32171C67.0307 2.32739 67.0392 2.33033 67.0479 2.32992H67.162C67.1707 2.33033 67.1792 2.32739 67.1857 2.32171C67.1923 2.31604 67.1963 2.30808 67.1971 2.29949C67.1973 2.29512 67.1983 2.29082 67.2002 2.28685C67.2021 2.28287 67.2047 2.27931 67.208 2.27635C67.2112 2.27338 67.215 2.27109 67.2192 2.26959C67.2234 2.26809 67.2278 2.26742 67.2322 2.26762C67.2527 2.26762 67.2687 2.27776 67.2687 2.2879C67.2685 2.29038 67.2688 2.29287 67.2696 2.29523C67.2704 2.29759 67.2716 2.29978 67.2733 2.30166C67.2749 2.30355 67.2769 2.30509 67.2791 2.30621C67.2814 2.30733 67.2838 2.30801 67.2863 2.30819C67.2965 2.30819 67.3038 2.30819 67.3038 2.31978C67.3038 2.33137 67.3199 2.32992 67.3389 2.32992H67.5612C67.5817 2.32992 67.5978 2.32268 67.5978 2.31254C67.5978 2.30239 67.6139 2.29515 67.6329 2.29515C67.6519 2.29515 67.668 2.30239 67.668 2.31254C67.668 2.32268 67.6812 2.32992 67.6958 2.32992C67.7104 2.32992 67.7236 2.32268 67.7236 2.31254C67.7236 2.30239 67.7397 2.29515 67.7601 2.29515C67.7806 2.29515 67.7952 2.30239 67.7952 2.31254C67.7952 2.32268 67.8113 2.32992 67.8303 2.32992H68V0.105791H66.4717L65.7229 2.32847H65.7302C65.7395 2.32847 65.7484 2.32481 65.755 2.31829C65.7616 2.31177 65.7653 2.30292 65.7653 2.2937Z" fill="#D42A29"/>
<path d="M58.4426 2.32847C58.447 2.32829 58.4513 2.32724 58.4553 2.32539C58.4593 2.32354 58.4629 2.32093 58.4659 2.3177C58.4689 2.31447 58.4712 2.31068 58.4728 2.30657C58.4743 2.30245 58.4749 2.29808 58.4747 2.2937V1.62139C58.4764 1.6132 58.4809 1.60584 58.4874 1.60055C58.494 1.59526 58.5021 1.59237 58.5106 1.59237C58.519 1.59237 58.5272 1.59526 58.5337 1.60055C58.5402 1.60584 58.5447 1.6132 58.5464 1.62139V2.2937C58.5464 2.30215 58.5498 2.31026 58.5558 2.31624C58.5619 2.32222 58.57 2.32558 58.5786 2.32558C58.5871 2.32558 58.5953 2.32222 58.6013 2.31624C58.6074 2.31026 58.6108 2.30215 58.6108 2.2937V1.02587C58.6108 1.01665 58.6145 1.0078 58.621 1.00128C58.6276 0.99476 58.6365 0.991097 58.6459 0.991097C58.6552 0.991097 58.6641 0.99476 58.6707 1.00128C58.6773 1.0078 58.681 1.01665 58.681 1.02587V2.2937C58.681 2.31254 58.6912 2.32847 58.7044 2.32847C58.7175 2.32847 58.7278 2.31254 58.7278 2.2937V1.31276C58.7278 1.30354 58.7315 1.29469 58.738 1.28817C58.7446 1.28165 58.7535 1.27799 58.7629 1.27799C58.7722 1.27799 58.7811 1.28165 58.7877 1.28817C58.7943 1.29469 58.798 1.30354 58.798 1.31276V2.2937C58.798 2.31254 58.8097 2.32847 58.8214 2.32847C58.8331 2.32847 58.8448 2.31254 58.8448 2.2937V1.15917C58.8437 1.15391 58.8438 1.14848 58.8451 1.14327C58.8464 1.13806 58.8488 1.1332 58.8523 1.12904C58.8557 1.12489 58.86 1.12154 58.8649 1.11924C58.8698 1.11694 58.8752 1.11574 58.8806 1.11574C58.886 1.11574 58.8914 1.11694 58.8963 1.11924C58.9011 1.12154 58.9055 1.12489 58.9089 1.12904C58.9123 1.1332 58.9148 1.13806 58.9161 1.14327C58.9174 1.14848 58.9175 1.15391 58.9164 1.15917V2.2937C58.9164 2.31254 58.9237 2.32847 58.934 2.32847C58.9442 2.32847 58.9515 2.31254 58.9515 2.2937V1.62139C58.9532 1.6132 58.9577 1.60584 58.9642 1.60055C58.9707 1.59526 58.9789 1.59237 58.9874 1.59237C58.9958 1.59237 59.004 1.59526 59.0105 1.60055C59.017 1.60584 59.0215 1.6132 59.0232 1.62139V2.2937C59.0232 2.30292 59.0269 2.31177 59.0335 2.31829C59.04 2.32481 59.049 2.32847 59.0583 2.32847H59.0788C59.0881 2.32847 59.097 2.32481 59.1036 2.31829C59.1102 2.31177 59.1139 2.30292 59.1139 2.2937V1.71412C59.1155 1.70593 59.12 1.69857 59.1265 1.69328C59.1331 1.68799 59.1413 1.68511 59.1497 1.68511C59.1581 1.68511 59.1663 1.68799 59.1728 1.69328C59.1794 1.69857 59.1838 1.70593 59.1855 1.71412V1.96334C59.2563 1.704 59.3952 1.46792 59.5882 1.27923C59.7813 1.09054 60.0214 0.956019 60.2841 0.889408C60.5468 0.822798 60.8226 0.82649 61.0834 0.900109C61.3441 0.973727 61.5805 1.11463 61.7683 1.30842L62.5112 0.599881C62.0725 0.211462 61.5041 -0.0022312 60.9157 1.75694e-05H60.4082C60.0118 -0.000131158 59.6216 0.0977149 59.273 0.28469C58.9244 0.471665 58.6284 0.741858 58.4119 1.07079V2.2937C58.4114 2.3023 58.4144 2.31073 58.4201 2.31722C58.4259 2.3237 58.4339 2.32773 58.4426 2.32847Z" fill="#D42A29"/>
<path d="M60.6626 1.94016V2.32847H61.7273C61.736 2.32888 61.7445 2.32594 61.7511 2.32027C61.7576 2.31459 61.7617 2.30663 61.7624 2.29805C61.7624 2.28066 61.7712 2.26617 61.78 2.26617C61.7888 2.26617 61.7975 2.25023 61.7975 2.23139V2.21546C61.7992 2.20727 61.8037 2.19991 61.8102 2.19462C61.8168 2.18933 61.8249 2.18644 61.8334 2.18644C61.8418 2.18644 61.85 2.18933 61.8565 2.19462C61.8631 2.19991 61.8675 2.20727 61.8692 2.21546V2.2937C61.8692 2.31254 61.8809 2.32847 61.8955 2.32847C61.9102 2.32847 61.9204 2.31254 61.9204 2.2937V2.21546C61.9221 2.20727 61.9266 2.19991 61.9331 2.19462C61.9396 2.18933 61.9478 2.18644 61.9562 2.18644C61.9647 2.18644 61.9728 2.18933 61.9794 2.19462C61.9859 2.19991 61.9904 2.20727 61.9921 2.21546V2.2937C61.9921 2.30292 61.9958 2.31177 62.0023 2.31829C62.0089 2.32481 62.0178 2.32847 62.0272 2.32847H62.1734C62.1939 2.32847 62.21 2.32847 62.21 2.31543C62.21 2.30239 62.2217 2.30094 62.2363 2.30094C62.2401 2.30058 62.2439 2.29947 62.2473 2.29767C62.2507 2.29586 62.2537 2.29341 62.2562 2.29045C62.2586 2.28748 62.2604 2.28407 62.2616 2.2804C62.2627 2.27673 62.263 2.27288 62.2626 2.26907C62.2634 2.26048 62.2674 2.25252 62.274 2.24685C62.2805 2.24117 62.289 2.23823 62.2977 2.23864C62.3072 2.23863 62.3162 2.24225 62.3231 2.24873C62.3299 2.25521 62.3339 2.26406 62.3343 2.27341V2.2937C62.3343 2.31254 62.3416 2.32847 62.3518 2.32847C62.3621 2.32847 62.3694 2.32847 62.3694 2.31543C62.3694 2.30239 62.3855 2.30094 62.4045 2.30094C62.4235 2.30094 62.441 2.30094 62.441 2.31543C62.441 2.32992 62.4571 2.32847 62.4761 2.32847H62.5112V1.94016H60.6626Z" fill="#D42A29"/>
<path d="M62.4425 2.43425V2.48931C62.4425 2.50814 62.4337 2.52408 62.425 2.52408C62.4162 2.52408 62.4059 2.54002 62.4059 2.55886C62.4059 2.56808 62.4022 2.57693 62.3957 2.58345C62.3891 2.58997 62.3802 2.59363 62.3708 2.59363C62.3615 2.59363 62.3526 2.58997 62.346 2.58345C62.3394 2.57693 62.3357 2.56808 62.3357 2.55886V2.43425C62.3357 2.41541 62.327 2.39947 62.3182 2.39947C62.3094 2.39947 62.2992 2.41541 62.2992 2.43425V2.55886C62.2992 2.56808 62.2955 2.57693 62.2889 2.58345C62.2823 2.58997 62.2734 2.59363 62.2641 2.59363C62.2548 2.59363 62.2458 2.58997 62.2393 2.58345C62.2327 2.57693 62.229 2.56808 62.229 2.55886V2.43425C62.229 2.42618 62.2257 2.41844 62.22 2.41273C62.2142 2.40703 62.2064 2.40382 62.1983 2.40382C62.1901 2.40382 62.1823 2.40703 62.1766 2.41273C62.1708 2.41844 62.1676 2.42618 62.1676 2.43425V2.5009C62.1676 2.51012 62.1639 2.51897 62.1573 2.52549C62.1507 2.53201 62.1418 2.53567 62.1325 2.53567C62.1231 2.53567 62.1142 2.53201 62.1076 2.52549C62.1011 2.51897 62.0974 2.51012 62.0974 2.5009V2.43425C62.0974 2.41541 62.0857 2.39947 62.071 2.39947C62.0564 2.39947 62.0447 2.41541 62.0447 2.43425V2.55886C62.0458 2.56412 62.0457 2.56955 62.0444 2.57476C62.0431 2.57997 62.0406 2.58483 62.0372 2.58899C62.0338 2.59315 62.0294 2.5965 62.0245 2.5988C62.0196 2.6011 62.0143 2.60229 62.0089 2.60229C62.0035 2.60229 61.9981 2.6011 61.9932 2.5988C61.9883 2.5965 61.984 2.59315 61.9806 2.58899C61.9771 2.58483 61.9747 2.57997 61.9734 2.57476C61.9721 2.56955 61.972 2.56412 61.973 2.55886V2.43425C61.973 2.41541 61.973 2.39947 61.9555 2.39947C61.9379 2.39947 61.9394 2.41541 61.9394 2.43425V2.75302C61.9377 2.7612 61.9332 2.76857 61.9267 2.77385C61.9202 2.77914 61.912 2.78203 61.9036 2.78203C61.8951 2.78203 61.887 2.77914 61.8804 2.77385C61.8739 2.76857 61.8694 2.7612 61.8677 2.75302V2.43425C61.8677 2.41541 61.856 2.39947 61.8429 2.39947C61.8297 2.39947 61.8166 2.41541 61.8166 2.43425V2.62551C61.8149 2.6337 61.8104 2.64106 61.8039 2.64635C61.7973 2.65164 61.7892 2.65452 61.7807 2.65452C61.7723 2.65452 61.7641 2.65164 61.7576 2.64635C61.7511 2.64106 61.7466 2.6337 61.7449 2.62551V2.43425C61.7449 2.42502 61.7412 2.41618 61.7346 2.40966C61.728 2.40314 61.7191 2.39947 61.7098 2.39947H60.6656V2.78779H61.5153V3.62238C61.2643 3.79014 60.9683 3.87947 60.6656 3.87885C60.366 3.87901 60.073 3.79204 59.8229 3.62874C59.5728 3.46544 59.3766 3.23298 59.2586 2.96022V3.10511C59.257 3.1133 59.2525 3.12066 59.2459 3.12595C59.2394 3.13124 59.2312 3.13413 59.2228 3.13413C59.2144 3.13413 59.2062 3.13124 59.1997 3.12595C59.1931 3.12066 59.1887 3.1133 59.187 3.10511V2.76026C59.156 2.64674 59.1383 2.53005 59.1343 2.41251C59.1328 2.41968 59.1328 2.42708 59.1343 2.43425V3.35723C59.1354 3.36249 59.1353 3.36792 59.134 3.37313C59.1327 3.37834 59.1302 3.3832 59.1268 3.38736C59.1234 3.39152 59.1191 3.39487 59.1142 3.39717C59.1093 3.39947 59.1039 3.40066 59.0985 3.40066C59.0931 3.40066 59.0877 3.39947 59.0828 3.39717C59.0779 3.39487 59.0736 3.39152 59.0702 3.38736C59.0668 3.3832 59.0643 3.37834 59.063 3.37313C59.0617 3.36792 59.0616 3.36249 59.0627 3.35723V2.43425C59.0629 2.42975 59.0621 2.42526 59.0605 2.42105C59.0589 2.41684 59.0565 2.41299 59.0533 2.40974C59.0502 2.40649 59.0464 2.40391 59.0422 2.40214C59.0381 2.40038 59.0336 2.39947 59.029 2.39947C59.02 2.39985 59.0114 2.40367 59.0051 2.41016C58.9989 2.41664 58.9954 2.42527 58.9954 2.43425V3.44851C58.9954 3.45773 58.9917 3.46658 58.9851 3.4731C58.9785 3.47962 58.9696 3.48329 58.9603 3.48329C58.951 3.48329 58.9421 3.47962 58.9355 3.4731C58.9289 3.46658 58.9252 3.45773 58.9252 3.44851V2.43425C58.9252 2.41541 58.915 2.39947 58.9018 2.39947C58.8886 2.39947 58.8784 2.41541 58.8784 2.43425V3.84118C58.8767 3.84936 58.8722 3.85673 58.8657 3.86201C58.8592 3.8673 58.851 3.87019 58.8426 3.87019C58.8341 3.87019 58.8259 3.8673 58.8194 3.86201C58.8129 3.85673 58.8084 3.84936 58.8067 3.84118V2.43425C58.8071 2.42564 58.8042 2.41721 58.7984 2.41073C58.7927 2.40425 58.7847 2.40021 58.776 2.39947C58.7716 2.39966 58.7673 2.40071 58.7632 2.40256C58.7592 2.40441 58.7556 2.40702 58.7526 2.41025C58.7497 2.41348 58.7473 2.41726 58.7458 2.42138C58.7443 2.4255 58.7436 2.42987 58.7438 2.43425V3.70208C58.7438 3.70677 58.7429 3.71141 58.741 3.71573C58.7392 3.72004 58.7365 3.72394 58.733 3.72719C58.7296 3.73044 58.7256 3.73297 58.7212 3.73463C58.7167 3.73629 58.712 3.73705 58.7073 3.73685C58.698 3.73685 58.689 3.73319 58.6825 3.72667C58.6759 3.72014 58.6722 3.7113 58.6722 3.70208V2.43425C58.6722 2.41541 58.6619 2.39947 58.6488 2.39947C58.6356 2.39947 58.6268 2.41541 58.6268 2.43425V3.70208C58.6268 3.70677 58.6259 3.71141 58.624 3.71573C58.6222 3.72004 58.6195 3.72394 58.616 3.72719C58.6126 3.73044 58.6086 3.73297 58.6042 3.73463C58.5997 3.73629 58.595 3.73705 58.5903 3.73685C58.581 3.73685 58.572 3.73319 58.5655 3.72667C58.5589 3.72014 58.5552 3.7113 58.5552 3.70208V2.43425C58.5552 2.42579 58.5518 2.41769 58.5457 2.41171C58.5397 2.40573 58.5315 2.40237 58.523 2.40237C58.5145 2.40237 58.5063 2.40573 58.5003 2.41171C58.4942 2.41769 58.4908 2.42579 58.4908 2.43425V3.39345C58.4908 3.40267 58.4871 3.41152 58.4805 3.41804C58.474 3.42456 58.465 3.42823 58.4557 3.42823C58.4464 3.42823 58.4375 3.42456 58.4309 3.41804C58.4243 3.41152 58.4206 3.40267 58.4206 3.39345V2.43425C58.4206 2.41541 58.4118 2.39947 58.4016 2.39947C58.3914 2.39947 58.3841 2.41541 58.3841 2.43425V3.6021C58.5975 3.94624 58.8965 4.23042 59.2524 4.42752C59.6083 4.62461 60.0092 4.72804 60.4169 4.72793H60.9244C61.5129 4.72863 62.0808 4.51338 62.5186 4.12372V2.39947H62.4835C62.4784 2.39862 62.4732 2.39889 62.4682 2.40025C62.4633 2.40161 62.4587 2.40404 62.4548 2.40736C62.4509 2.41068 62.4477 2.4148 62.4456 2.41945C62.4435 2.4241 62.4424 2.42915 62.4425 2.43425Z" fill="#D42A29"/>
<path d="M58.1779 2.32847C58.1866 2.32847 58.1939 2.31254 58.1939 2.2937V1.63008C58.1956 1.62189 58.2001 1.61453 58.2066 1.60924C58.2132 1.60396 58.2213 1.60107 58.2298 1.60107C58.2382 1.60107 58.2464 1.60396 58.2529 1.60924C58.2594 1.61453 58.2639 1.62189 58.2656 1.63008V2.2937C58.2656 2.30292 58.2693 2.31177 58.2759 2.31829C58.2825 2.32481 58.2914 2.32847 58.3007 2.32847C58.31 2.32847 58.3189 2.32481 58.3255 2.31829C58.3321 2.31177 58.3358 2.30292 58.3358 2.2937V1.18526C58.2649 1.30672 58.2052 1.43426 58.1574 1.56633V2.2908C58.1618 2.31833 58.1691 2.32847 58.1779 2.32847Z" fill="#D42A29"/>
<path d="M58.2422 2.39947C58.2305 2.39947 58.2203 2.41541 58.2203 2.43425V3.30362C58.2466 3.36302 58.2744 3.41953 58.3051 3.47459V2.60522C58.3051 2.58639 58.2949 2.57045 58.2846 2.57045C58.2744 2.57045 58.2656 2.55451 58.2656 2.53423V2.43425C58.2656 2.41541 58.2554 2.39947 58.2422 2.39947Z" fill="#D42A29"/>
<path d="M25.804 21.7342C26.137 21.13 26.3271 20.4586 26.3597 19.7709L26.3875 19.2826L26.9404 9.37905L22.4476 9.42976L22.5836 7.99965L19.1628 8.00689L19.0239 9.46743L18.1712 9.47758L18.3175 7.99965L14.8967 8.00689L14.7504 9.5167L11.5856 9.55147L10.5618 9.03275L9.24559 23.8395L19.4538 23.8279C20.6765 23.8838 21.9017 23.8148 23.1101 23.6222C23.6493 23.5303 24.1624 23.3251 24.6149 23.0204C25.0675 22.7158 25.449 22.3187 25.7338 21.8559C25.7587 21.8154 25.7821 21.7762 25.804 21.7342ZM14.6554 20.3563H13.0905L13.383 17.2758H14.9479L14.6554 20.3563ZM15.1438 15.3588H13.5088L13.8013 12.2596H15.4378L15.1438 15.3588ZM18.8601 20.3577H17.1402L17.4327 17.2773H19.1526L18.8601 20.3577ZM19.2856 15.3588H17.5584L17.8509 12.2596H19.5796L19.2856 15.3588ZM22.8922 20.3548H21.1372L21.4297 17.2744H23.1847L22.8922 20.3548ZM21.5511 15.3588L21.8436 12.2596H23.5985L23.3061 15.3588H21.5511Z" fill="#D42A29"/>
<path d="M42.3478 9.73694H34.8452L36.5329 8.44303H31.8061C31.8061 8.44303 30.9184 11.0743 27.5648 13.2043L38.6447 13.2144C38.6447 13.2144 39.003 15.5327 34.3669 15.7138L35.4272 14.6634H31.1231C31.1231 14.6634 30.1549 15.8776 30.0628 15.8776V18.4306H38.6433C38.6433 18.4306 38.9358 20.7881 34.4459 20.917L35.4214 19.9506H31.1173C31.1173 19.9506 30.6141 20.5823 30.2997 20.9344L28.3751 20.9416C27.6836 22.2735 26.5201 23.3055 25.1078 23.8395H38.6433C38.6433 23.8395 42.3478 23.6468 42.3478 18.6233V17.98L41.0769 17.5598L42.3478 16.0572V9.73694Z" fill="#D42A29"/>
<path d="M58.1632 9.73694H50.6591L52.3513 8.44303H47.6215C47.6215 8.44303 46.7338 11.0743 43.3803 13.2043L54.4587 13.2144C54.4587 13.2144 54.8185 15.5327 50.1809 15.7138L51.2412 14.6634H46.94C46.94 14.6634 45.9718 15.8776 45.8812 15.8776V18.4306H54.4573C54.4573 18.4306 54.7498 20.7881 50.2599 20.917L51.2354 19.9506H46.94C46.94 19.9506 46.4369 20.5823 46.1225 20.9344L44.1978 20.9416C43.5064 22.2735 42.3429 23.3055 40.9306 23.8395H54.4573C54.4573 23.8395 58.1632 23.6468 58.1632 18.6233V17.98L56.8923 17.5598L58.1632 16.0572V9.73694Z" fill="#D42A29"/>
<path d="M37.9177 27.2518L38.0888 26.5491C37.8446 26.6317 37.6018 26.7157 37.3576 26.7968C28.5124 29.744 19.8251 31.3755 12.8812 31.39H12.792C6.10836 31.39 1.74134 29.815 0.806802 27.0649C0.175002 25.2059 1.1227 22.834 3.44661 20.2548V19.4362C3.44661 19.4058 3.44661 19.3768 3.44661 19.3478C0.604977 22.3008 -0.528459 25.0335 0.229115 27.259C1.26895 30.3178 5.72957 32 12.7964 32H12.89C19.8997 31.9855 28.6601 30.3424 37.5609 27.3735L37.9177 27.2518Z" fill="#D42A29"/>
<path d="M66.7891 6.77529C66.5653 8.83859 64.8995 11.309 61.973 13.9099L62.5902 14.1852C65.5152 11.5568 67.1561 9.06608 67.4033 6.89845L66.7891 6.77529Z" fill="#D42A29"/>
<path d="M51.2544 0.301398C44.8925 0.724491 37.4338 2.28211 29.8829 4.80183C27.2709 5.67119 22.9624 7.35342 20.5463 8.37348C20.7568 8.4894 20.9531 8.62894 21.1313 8.78933C23.4289 7.83012 27.6073 6.20586 30.0789 5.37996C37.7175 2.83271 45.2421 1.27364 51.6288 0.888222L51.2544 0.301398Z" fill="#D42A29"/>
</svg>
