<svg width="16" height="16" viewBox="0 0 16 16" fill="none" xmlns="http://www.w3.org/2000/svg">
<path d="M7.93099 14.8393C6.71155 14.8393 5.59215 14.4311 4.87149 13.8215C4.50545 13.9309 4.03725 14.1068 3.74189 14.325C3.48889 14.5117 3.52052 14.702 3.56605 14.7787C3.76609 15.1164 6.99802 14.9944 7.93099 14.8893V14.8393ZM7.93099 14.8393C9.15062 14.8393 10.2699 14.4311 10.9907 13.8215C11.3565 13.9309 11.8248 14.1068 12.1203 14.325C12.3731 14.5117 12.3416 14.702 12.2959 14.7787C12.0959 15.1164 8.86405 14.9944 7.93099 14.8893V14.8393Z" fill="#16181A" fill-opacity="0.8"/>
<path fill-rule="evenodd" clip-rule="evenodd" d="M12.1128 6.97753C11.5659 7.12697 9.95192 7.51683 7.93805 7.53047H7.92318C5.85835 7.51637 4.21402 7.10713 3.70905 6.96663C3.60525 6.93763 3.54852 6.8778 3.54852 6.8778C3.54792 6.8595 3.54015 6.5501 3.54015 6.39033C3.54015 3.70183 4.80938 1.0001 7.93065 1C11.052 1.0001 12.3211 3.70173 12.3211 6.39043C12.3211 6.55 12.3133 6.8595 12.3128 6.8779C12.3128 6.8779 12.2432 6.94183 12.1128 6.97753ZM12.9427 8.45013C13.1153 8.90003 13.2857 9.3685 13.4105 9.77023C14.0058 11.6859 13.8128 12.4788 13.6661 12.4966C13.351 12.5346 12.4395 11.0545 12.4395 11.0545C12.4395 12.5586 11.0815 14.868 7.97192 14.8892H7.88942C4.77972 14.868 3.42175 12.5586 3.42175 11.0545C3.42175 11.0545 2.51035 12.5346 2.19521 12.4965C2.04839 12.4788 1.85545 11.686 2.45081 9.77023C2.57564 9.3686 2.74601 8.90003 2.91861 8.45013C2.91861 8.45013 3.03498 8.44283 3.09394 8.45983C3.57722 8.59933 4.09198 8.72297 4.61482 8.8264C4.52578 9.3781 4.47488 10.0609 4.52298 10.8674C4.65102 13.0121 5.92475 14.3603 7.89082 14.3798H7.97062C9.93678 14.3603 11.2104 13.0121 11.3386 10.8674C11.3867 10.0608 11.3358 9.37817 11.2467 8.82643C11.7787 8.7211 12.3024 8.59493 12.7932 8.45237C12.8435 8.43787 12.9427 8.45013 12.9427 8.45013ZM11.2467 8.82643C10.1001 9.05337 8.91485 9.1834 7.93805 9.17157H7.92318C6.94645 9.18327 5.76128 9.05327 4.61482 8.8264C4.61945 8.79763 4.62418 8.7692 4.62905 8.74113C5.77112 8.9663 6.95035 9.0951 7.92292 9.08343H7.93782L7.93792 9.08333C8.91068 9.0952 10.0902 8.9663 11.2324 8.74103C11.2373 8.76913 11.242 8.7976 11.2467 8.82643ZM6.01245 3.8956C6.03522 4.50887 6.39698 4.99117 6.82042 4.972C7.24355 4.95313 7.56805 4.44027 7.54488 3.82673C7.52192 3.21327 7.16028 2.73116 6.73732 2.75013C6.31388 2.7693 5.98948 3.28215 6.01245 3.8956ZM9.04168 4.972C9.46515 4.99117 9.82688 4.50877 9.84955 3.8956C9.87262 3.28215 9.54822 2.7693 9.12478 2.75013C8.70175 2.73126 8.34018 3.21336 8.31722 3.82683C8.29408 4.44027 8.61845 4.95303 9.04168 4.972ZM7.93818 5.30827C9.34888 5.30827 10.4885 5.5875 10.6016 5.83803V5.83813C10.6069 5.84923 10.6098 5.86137 10.6099 5.87367C10.6097 5.89103 10.6043 5.90793 10.5943 5.9221C10.4989 6.06117 9.23358 6.74787 7.93818 6.74787H7.92298C6.62748 6.74787 5.36215 6.06097 5.26678 5.9221C5.25685 5.90797 5.25142 5.89113 5.25122 5.87387C5.25132 5.8615 5.25415 5.8493 5.25948 5.83813C5.37265 5.5875 6.51218 5.30827 7.92298 5.30827H7.93818Z" fill="#16181A" fill-opacity="0.8"/>
<path d="M7.34059 3.90482C7.35996 4.14709 7.22706 4.36232 7.04422 4.38575C6.86102 4.40932 6.69706 4.23202 6.67762 3.98975C6.65846 3.74729 6.79116 3.53209 6.97369 3.50872C7.15719 3.48499 7.32142 3.66245 7.34059 3.90472V3.90482ZM8.50389 3.98579C8.54132 3.91872 8.79616 3.56622 9.32379 3.69455C9.46246 3.72832 9.52656 3.77795 9.54009 3.79742C9.56002 3.82622 9.56559 3.86725 9.54526 3.92252C9.50516 4.03209 9.42236 4.02909 9.37652 4.00765C9.34686 3.99385 8.97936 3.74885 8.64076 4.11439C8.61742 4.13942 8.57579 4.14805 8.53636 4.11829C8.49676 4.08832 8.48052 4.02782 8.50389 3.98579Z" fill="#16181A" fill-opacity="0.8"/>
<path d="M5.16797 8.90381V11.0145C5.16797 11.0145 6.1348 11.2094 7.1035 11.0744V9.12757C6.48984 9.09284 5.82804 9.01551 5.16797 8.90381Z" fill="#16181A" fill-opacity="0.8"/>
<path d="M12.3129 6.87793C12.3129 6.87793 10.4321 7.47163 7.93815 7.48846H7.92325C5.43335 7.47173 3.55501 6.87986 3.54861 6.87793L2.9187 8.45003C4.49421 8.92503 6.44678 9.23113 7.92325 9.21333H7.93815C9.41461 9.23113 11.3671 8.92503 12.9428 8.45003L12.3129 6.87793Z" fill="#16181A" fill-opacity="0.8"/>
</svg>
