<svg width="24" height="24" viewBox="0 0 24 24" fill="none" xmlns="http://www.w3.org/2000/svg">
<path d="M13.6783 21.5918V11.9112C13.6783 9.27331 14.3826 7.10925 15.7911 5.41897C17.1997 3.72869 19.1076 2.58904 21.515 2V6.26411C20.7723 6.4946 20.1705 6.78912 19.7095 7.14766C19.2485 7.48059 18.89 7.87755 18.6339 8.33854C18.3778 8.79952 18.2113 9.33734 18.1345 9.95198C18.0576 10.541 18.0192 11.1941 18.0192 11.9112V12.9868H21.515V21.5918H13.6783ZM2 21.5918V11.9112C2 9.27331 2.70428 7.10925 4.11284 5.41897C5.52141 3.72869 7.42937 2.58904 9.83673 2V6.26411C9.09404 6.4946 8.4922 6.78912 8.03121 7.14766C7.57023 7.48059 7.21168 7.87755 6.95558 8.33854C6.72509 8.79952 6.55862 9.33734 6.45618 9.95198C6.37935 10.541 6.34094 11.1941 6.34094 11.9112V12.9868H9.83673V21.5918H2Z" fill="#D42A29"/>
</svg>
