<svg width="16" height="16" viewBox="0 0 16 16" fill="none" xmlns="http://www.w3.org/2000/svg">
<path d="M12.3325 7.23707C12.2812 4.33597 9.91345 2 7.00008 2C4.05455 2 1.66675 4.3878 1.66675 7.33333C1.66675 8.72337 2.19852 9.9892 3.06972 10.9385L2.67022 13.3419L5.04175 12.3233C6.08665 12.6707 7.07275 12.7576 8.00008 12.5839" stroke="#16181A" stroke-opacity="0.8" stroke-width="1.33333" stroke-linecap="round" stroke-linejoin="round"/>
<path d="M5.04175 6.82217C5.45595 6.82217 5.79175 6.4839 5.79175 6.0666C5.79175 5.64934 5.45595 5.31104 5.04175 5.31104C4.62755 5.31104 4.29175 5.64934 4.29175 6.0666C4.29175 6.4839 4.62755 6.82217 5.04175 6.82217Z" fill="#16181A" fill-opacity="0.8"/>
<path d="M8.04175 6.82217C8.45595 6.82217 8.79175 6.4839 8.79175 6.0666C8.79175 5.64934 8.45595 5.31104 8.04175 5.31104C7.62755 5.31104 7.29175 5.64934 7.29175 6.0666C7.29175 6.4839 7.62755 6.82217 8.04175 6.82217Z" fill="#16181A" fill-opacity="0.8"/>
<path d="M12.9205 13.3098C12.3378 13.7434 11.6155 14 10.8333 14C8.90025 14 7.33325 12.433 7.33325 10.5C7.33325 8.567 8.90025 7 10.8333 7C12.7663 7 14.3333 8.567 14.3333 10.5C14.3333 11.0332 14.214 11.5386 14.0007 11.9909" stroke="#16181A" stroke-opacity="0.8" stroke-width="1.33333" stroke-linecap="round" stroke-linejoin="round"/>
<path d="M14.0009 11.991L14.3334 14L12.9207 13.3098" stroke="#16181A" stroke-opacity="0.8" stroke-width="1.33333" stroke-linecap="round" stroke-linejoin="round"/>
<path d="M11.8958 10.2666C11.5851 10.2666 11.3333 10.0129 11.3333 9.69997C11.3333 9.387 11.5851 9.1333 11.8958 9.1333C12.2064 9.1333 12.4583 9.387 12.4583 9.69997C12.4583 10.0129 12.2064 10.2666 11.8958 10.2666Z" fill="#16181A" fill-opacity="0.8"/>
<path d="M9.64575 10.2666C9.33509 10.2666 9.08325 10.0129 9.08325 9.69997C9.08325 9.387 9.33509 9.1333 9.64575 9.1333C9.95642 9.1333 10.2083 9.387 10.2083 9.69997C10.2083 10.0129 9.95642 10.2666 9.64575 10.2666Z" fill="#16181A" fill-opacity="0.8"/>
</svg>
